<svg width="742" height="205" viewBox="0 0 742 205" fill="none" xmlns="http://www.w3.org/2000/svg">
<path d="M86.5605 81.7461L82.7578 84.2598C80.4375 80.8223 77.4082 78.1152 73.6699 76.1387C69.9746 74.1191 65.957 73.1094 61.6172 73.1094C54.5703 73.1094 48.5547 75.6016 43.5703 80.5859C38.5859 85.5703 36.0938 91.5859 36.0938 98.6328C36.0938 105.68 38.5859 111.695 43.5703 116.68C48.5547 121.664 54.5703 124.156 61.6172 124.156C65.957 124.156 69.9746 123.146 73.6699 121.127C77.4082 119.107 80.4375 116.379 82.7578 112.941L86.4961 115.648C83.7461 119.688 80.1797 122.889 75.7969 125.252C71.4141 127.615 66.6875 128.797 61.6172 128.797C57.5352 128.797 53.625 128.002 49.8867 126.412C46.1914 124.822 42.9902 122.674 40.2832 119.967C37.5762 117.26 35.4277 114.059 33.8379 110.363C32.248 106.625 31.4531 102.715 31.4531 98.6328C31.4531 94.5508 32.248 90.6621 33.8379 86.9668C35.4277 83.2285 37.5762 80.0059 40.2832 77.2988C42.9902 74.5918 46.1914 72.4434 49.8867 70.8535C53.625 69.2637 57.5352 68.4688 61.6172 68.4688C66.7305 68.4688 71.4785 69.6719 75.8613 72.0781C80.2441 74.4414 83.8105 77.6641 86.5605 81.7461ZM94.2305 76.4609L90.3633 78.9746C87.1836 74.334 83.0586 70.6602 77.9883 67.9531C72.9609 65.2031 67.5039 63.8281 61.6172 63.8281C55.3008 63.8281 49.4785 65.3965 44.1504 68.5332C38.8223 71.627 34.5898 75.8379 31.4531 81.166C28.3594 86.4941 26.8125 92.3164 26.8125 98.6328C26.8125 104.949 28.3594 110.771 31.4531 116.1C34.5898 121.428 38.8223 125.66 44.1504 128.797C49.4785 131.891 55.3008 133.438 61.6172 133.438C67.5039 133.438 72.9824 132.062 78.0527 129.312C83.123 126.562 87.248 122.846 90.4277 118.162L94.2305 120.805C90.6211 126.133 85.9375 130.344 80.1797 133.438C74.4648 136.531 68.2773 138.078 61.6172 138.078C54.4844 138.078 47.8887 136.316 41.8301 132.793C35.7715 129.27 30.9805 124.479 27.457 118.42C23.9336 112.361 22.1719 105.766 22.1719 98.6328C22.1719 91.5 23.9336 84.9043 27.457 78.8457C30.9805 72.7871 35.7715 67.9961 41.8301 64.4727C47.8887 60.9492 54.4844 59.1875 61.6172 59.1875C68.2773 59.1875 74.4648 60.7344 80.1797 63.8281C85.9375 66.9219 90.6211 71.1328 94.2305 76.4609ZM101.965 71.3047L98.0977 73.8184C94.0586 67.8887 88.8164 63.2051 82.3711 59.7676C75.9688 56.2871 69.0508 54.5469 61.6172 54.5469C55.6445 54.5469 49.9297 55.707 44.4727 58.0273C39.0156 60.3477 34.3105 63.4844 30.3574 67.4375C26.4473 71.3477 23.332 76.0312 21.0117 81.4883C18.6914 86.9453 17.5312 92.6602 17.5312 98.6328C17.5312 104.605 18.6914 110.32 21.0117 115.777C23.332 121.234 26.4473 125.939 30.3574 129.893C34.3105 133.803 39.0156 136.918 44.4727 139.238C49.9297 141.559 55.6445 142.719 61.6172 142.719C69.0938 142.719 76.0332 140.979 82.4355 137.498C88.8379 134.018 94.0586 129.312 98.0977 123.383L101.836 126.154C97.3672 132.686 91.5879 137.863 84.498 141.688C77.4512 145.469 69.8242 147.359 61.6172 147.359C52.8086 147.359 44.666 145.189 37.1895 140.85C29.7129 136.467 23.7832 130.537 19.4004 123.061C15.0605 115.584 12.8906 107.441 12.8906 98.6328C12.8906 89.8242 15.0605 81.6816 19.4004 74.2051C23.7832 66.7285 29.7129 60.8203 37.1895 56.4805C44.666 52.0977 52.8086 49.9062 61.6172 49.9062C69.8672 49.9062 77.5371 51.8398 84.627 55.707C91.7168 59.5312 97.4961 64.7305 101.965 71.3047ZM109.57 66.0195L105.703 68.5332C100.805 61.3574 94.4668 55.6855 86.6895 51.5176C78.9551 47.3496 70.5977 45.2656 61.6172 45.2656C54.3984 45.2656 47.4805 46.6836 40.8633 49.5195C34.2891 52.3125 28.6172 56.0938 23.8477 60.8633C19.0781 65.6328 15.2754 71.3262 12.4395 77.9434C9.64648 84.5176 8.25 91.4141 8.25 98.6328C8.25 105.852 9.64648 112.77 12.4395 119.387C15.2754 125.961 19.0781 131.633 23.8477 136.402C28.6172 141.172 34.2891 144.975 40.8633 147.811C47.4805 150.604 54.3984 152 61.6172 152C70.5977 152 78.9766 149.895 86.7539 145.684C94.5312 141.473 100.869 135.779 105.768 128.604L109.506 131.439C104.178 139.174 97.3027 145.318 88.8809 149.873C80.459 154.385 71.3711 156.641 61.6172 156.641C53.7539 156.641 46.2344 155.094 39.0586 152C31.9258 148.949 25.7598 144.846 20.5605 139.689C15.4043 134.49 11.2793 128.324 8.18555 121.191C5.13477 114.016 3.60938 106.496 3.60938 98.6328C3.60938 90.7695 5.13477 83.2715 8.18555 76.1387C11.2793 68.9629 15.4043 62.7969 20.5605 57.6406C25.7598 52.4414 31.9258 48.3164 39.0586 45.2656C46.2344 42.1719 53.7539 40.625 61.6172 40.625C71.4141 40.625 80.5234 42.9023 88.9453 47.457C97.3672 52.0117 104.242 58.1992 109.57 66.0195ZM118.529 59.1875H123.17V152H118.529V59.1875ZM146.373 59.1875H151.014V128.797H185.238V133.438H151.014V138.078H185.238V142.719H151.014V147.359H185.238V152H146.373V59.1875ZM137.092 59.1875H141.732V152H137.092V59.1875ZM127.811 59.1875H132.451V152H127.811V59.1875ZM223.33 59.1875H227.971V152H223.33V59.1875ZM214.049 59.1875H218.689V152H214.049V59.1875ZM204.768 59.1875H209.408V152H204.768V59.1875ZM195.486 59.1875H200.127V152H195.486V59.1875ZM299.385 93.9922V152H294.744V93.9922C294.744 92.7461 294.529 91.6934 294.1 90.834C293.713 89.9316 293.197 89.2441 292.553 88.7715C291.908 88.2988 291.049 87.9336 289.975 87.6758C288.943 87.375 287.934 87.2031 286.945 87.1602C285.957 87.0742 284.732 87.0312 283.271 87.0312C281.811 87.0312 280.586 87.0742 279.598 87.1602C278.609 87.2031 277.578 87.375 276.504 87.6758C275.473 87.9336 274.635 88.2988 273.99 88.7715C273.346 89.2441 272.809 89.9316 272.379 90.834C271.992 91.6934 271.799 92.7461 271.799 93.9922V152H267.158V93.9922C267.158 86.2578 272.529 82.3906 283.271 82.3906C294.014 82.3906 299.385 86.2578 299.385 93.9922ZM308.666 93.9922V152H304.025V93.9922C304.025 88.5352 302.092 84.4746 298.225 81.8105C294.4 79.1035 289.416 77.75 283.271 77.75C277.127 77.75 272.121 79.1035 268.254 81.8105C264.43 84.4746 262.518 88.5352 262.518 93.9922V152H257.877V93.9922C257.877 89.4805 259.037 85.6133 261.357 82.3906C263.678 79.168 266.707 76.8262 270.445 75.3652C274.227 73.8613 278.502 73.1094 283.271 73.1094C288.041 73.1094 292.295 73.8613 296.033 75.3652C299.814 76.8262 302.865 79.168 305.186 82.3906C307.506 85.6133 308.666 89.4805 308.666 93.9922ZM317.947 93.9922V152H313.307V93.9922C313.307 89.9531 312.512 86.3008 310.922 83.0352C309.375 79.7695 307.227 77.084 304.477 74.9785C301.727 72.873 298.547 71.2617 294.938 70.1445C291.328 69.0273 287.439 68.4688 283.271 68.4688C279.104 68.4688 275.215 69.0273 271.605 70.1445C267.996 71.2617 264.816 72.873 262.066 74.9785C259.316 77.084 257.146 79.7695 255.557 83.0352C254.01 86.3008 253.236 89.9531 253.236 93.9922V152H248.596V93.9922C248.596 89.3086 249.498 85.0547 251.303 81.2305C253.15 77.4062 255.643 74.248 258.779 71.7559C261.916 69.2207 265.59 67.2656 269.801 65.8906C274.012 64.5156 278.502 63.8281 283.271 63.8281C288.041 63.8281 292.531 64.5156 296.742 65.8906C300.953 67.2656 304.627 69.2207 307.764 71.7559C310.9 74.248 313.371 77.4062 315.176 81.2305C317.023 85.0547 317.947 89.3086 317.947 93.9922ZM327.229 152H322.588V93.9922C322.588 89.3086 321.535 84.8184 319.43 80.5215C317.367 76.2246 314.574 72.5293 311.051 69.4355C307.527 66.2988 303.338 63.8066 298.482 61.959C293.627 60.1113 288.557 59.1875 283.271 59.1875C276.01 59.1875 269.414 60.5625 263.484 63.3125C257.598 66.0195 252.871 70.0586 249.305 75.4297C245.738 80.7578 243.955 86.9453 243.955 93.9922V152H239.314V93.9922C239.314 88.0625 240.475 82.6055 242.795 77.6211C245.115 72.6367 248.252 68.4688 252.205 65.1172C256.201 61.7656 260.863 59.166 266.191 57.3184C271.562 55.4707 277.256 54.5469 283.271 54.5469C293.928 54.5469 303.166 57.2324 310.986 62.6035C318.807 57.2324 328.045 54.5469 338.701 54.5469C344.717 54.5469 350.389 55.4707 355.717 57.3184C361.088 59.166 365.75 61.7656 369.703 65.1172C373.699 68.4688 376.857 72.6367 379.178 77.6211C381.498 82.6055 382.658 88.0625 382.658 93.9922V152H378.018V93.9922C378.018 86.9883 376.234 80.8223 372.668 75.4941C369.102 70.123 364.354 66.0625 358.424 63.3125C352.537 60.5625 345.963 59.1875 338.701 59.1875C329.592 59.1875 321.643 61.3359 314.854 65.6328C315.842 66.4922 316.938 67.6094 318.141 68.9844C324.027 65.5469 330.881 63.8281 338.701 63.8281C343.471 63.8281 347.961 64.5156 352.172 65.8906C356.383 67.2656 360.057 69.2207 363.193 71.7559C366.33 74.248 368.801 77.4062 370.605 81.2305C372.453 85.0547 373.377 89.3086 373.377 93.9922V152H368.736V93.9922C368.736 89.9531 367.941 86.3008 366.352 83.0352C364.805 79.7695 362.656 77.084 359.906 74.9785C357.156 72.873 353.977 71.2617 350.367 70.1445C346.758 69.0273 342.869 68.4688 338.701 68.4688C331.869 68.4688 325.961 69.8652 320.977 72.6582C321.75 73.8613 322.523 75.1934 323.297 76.6543C327.508 74.291 332.643 73.1094 338.701 73.1094C343.471 73.1094 347.725 73.8613 351.463 75.3652C355.244 76.8262 358.295 79.168 360.615 82.3906C362.936 85.6133 364.096 89.4805 364.096 93.9922V152H359.455V93.9922C359.455 88.5352 357.521 84.4746 353.654 81.8105C349.83 79.1035 344.846 77.75 338.701 77.75C333.115 77.75 328.582 78.7812 325.102 80.8438C325.66 82.4766 326.09 84.0234 326.391 85.4844C329.098 83.4219 333.201 82.3906 338.701 82.3906C349.443 82.3906 354.814 86.2578 354.814 93.9922V152H350.174V93.9922C350.174 92.7461 349.959 91.6934 349.529 90.834C349.143 89.9316 348.627 89.2441 347.982 88.7715C347.338 88.2988 346.479 87.9336 345.404 87.6758C344.373 87.375 343.363 87.2031 342.375 87.1602C341.387 87.0742 340.162 87.0312 338.701 87.0312C337.24 87.0312 336.016 87.0742 335.027 87.1602C334.039 87.2031 333.008 87.375 331.934 87.6758C330.902 87.9336 330.064 88.2988 329.42 88.7715C328.775 89.2441 328.238 89.9316 327.809 90.834C327.422 91.6934 327.229 92.7461 327.229 93.9922V152ZM466.963 105.078L466.834 105.014C471.689 100.287 474.117 94.5293 474.117 87.7402C474.117 81.2949 471.711 75.709 466.898 70.9824C462.129 66.2129 456.479 63.8281 449.947 63.8281H398.9V152H394.26V59.1875H449.947C455.018 59.1875 459.766 60.498 464.191 63.1191C468.66 65.6973 472.205 69.1992 474.826 73.625C477.447 78.0078 478.758 82.7129 478.758 87.7402C478.758 94.6152 476.91 100.523 473.215 105.465C476.91 110.578 478.758 116.207 478.758 122.352C478.758 128.238 477.426 133.438 474.762 137.949C472.098 142.418 468.596 145.791 464.256 148.068C459.959 150.346 455.189 151.484 449.947 151.484H420.621V146.844H449.947C456.564 146.844 462.236 144.502 466.963 139.818C471.732 135.092 474.117 129.27 474.117 122.352C474.117 119.172 473.43 116.035 472.055 112.941C470.68 109.848 468.961 107.248 466.898 105.143C466.898 105.1 466.92 105.078 466.963 105.078ZM449.947 128.281H420.621V132.922H449.947C452.783 132.922 455.189 131.977 457.166 130.086C459.186 128.152 460.195 125.574 460.195 122.352C460.195 119.559 459.164 117.109 457.102 115.004C455.039 112.855 452.654 111.781 449.947 111.781H420.557V116.422H449.947C451.408 116.422 452.697 117.023 453.814 118.227C454.975 119.43 455.555 120.805 455.555 122.352C455.555 124.242 455.018 125.703 453.943 126.734C452.869 127.766 451.537 128.281 449.947 128.281ZM449.947 137.562H420.621V142.203H449.947C455.275 142.203 459.852 140.312 463.676 136.531C467.543 132.707 469.477 127.98 469.477 122.352C469.477 118.785 468.51 115.434 466.576 112.297C464.686 109.117 462.172 106.668 459.035 104.949C462.172 103.316 464.686 100.996 466.576 97.9883C468.51 94.9375 469.477 91.5215 469.477 87.7402C469.477 82.584 467.521 78.0938 463.611 74.2695C459.744 70.4023 455.189 68.4688 449.947 68.4688H403.541V152H408.182V73.1094H449.947C453.9 73.1094 457.359 74.5918 460.324 77.5566C463.332 80.4785 464.836 83.873 464.836 87.7402C464.836 92.0371 463.375 95.582 460.453 98.375C457.531 101.125 454.029 102.5 449.947 102.5H435.768H420.621V107.141H435.768H449.947C453.9 107.141 457.359 108.666 460.324 111.717C463.332 114.768 464.836 118.312 464.836 122.352C464.836 126.82 463.375 130.473 460.453 133.309C457.531 136.145 454.029 137.562 449.947 137.562ZM449.947 93.2188H420.621V97.8594H449.947C452.826 97.8594 455.254 96.957 457.23 95.1523C459.207 93.3047 460.195 90.834 460.195 87.7402C460.195 85.1191 459.164 82.7988 457.102 80.7793C455.039 78.7598 452.654 77.75 449.947 77.75H412.822V152H417.463V82.3906H449.947C451.408 82.3906 452.697 82.9492 453.814 84.0664C454.975 85.1406 455.555 86.3652 455.555 87.7402C455.555 89.502 455.018 90.8555 453.943 91.8008C452.869 92.7461 451.537 93.2188 449.947 93.2188ZM517.236 59.1875H521.877V152H517.236V59.1875ZM507.955 59.1875H512.596V152H507.955V59.1875ZM498.674 59.1875H503.314V152H498.674V59.1875ZM489.393 59.1875H494.033V152H489.393V59.1875ZM607.213 114.553L602.572 106.109V59.1875H607.213V114.553ZM616.494 130.602L611.854 122.738V59.1875H616.494V130.602ZM552.557 96.6348L557.197 105.078V152H552.557V96.6348ZM543.275 79.9414L547.916 88.4492V152H543.275V79.9414ZM544.887 59.1875H550.301L604.055 152H598.641L544.887 59.1875ZM555.844 59.1875H561.322L615.012 152H609.469L555.844 59.1875ZM566.736 59.1875H572.15L621.135 143.943V59.1875H625.775V152H620.297L566.736 59.1875ZM538.635 67.1797V152H533.994V59.1875H539.537L593.098 152H587.748L538.635 67.1797ZM703.184 104.949H707.824V152C700.949 155.094 693.838 156.641 686.49 156.641C679.572 156.641 672.955 155.287 666.639 152.58C660.365 149.873 654.951 146.242 650.396 141.688C645.842 137.133 642.211 131.719 639.504 125.445C636.797 119.129 635.443 112.512 635.443 105.594C635.443 98.6758 636.797 92.0801 639.504 85.8066C642.211 79.4902 645.842 74.0547 650.396 69.5C654.951 64.9453 660.365 61.3145 666.639 58.6074C672.955 55.9004 679.572 54.5469 686.49 54.5469C694.396 54.5469 701.83 56.2656 708.791 59.7031C715.752 63.0977 721.617 67.7812 726.387 73.7539L722.648 76.5254C718.309 71.1543 712.98 66.9219 706.664 63.8281C700.391 60.7344 693.666 59.1875 686.49 59.1875C680.217 59.1875 674.201 60.4121 668.443 62.8613C662.729 65.3105 657.787 68.6191 653.619 72.7871C649.494 76.9121 646.207 81.8535 643.758 87.6113C641.309 93.3262 640.084 99.3203 640.084 105.594C640.084 111.867 641.309 117.883 643.758 123.641C646.207 129.355 649.494 134.297 653.619 138.465C657.787 142.59 662.729 145.877 668.443 148.326C674.201 150.775 680.217 152 686.49 152C692.291 152 697.855 150.969 703.184 148.906V144.137C697.812 146.285 692.248 147.359 686.49 147.359C680.818 147.359 675.404 146.264 670.248 144.072C665.092 141.838 660.645 138.873 656.906 135.178C653.211 131.439 650.246 126.992 648.012 121.836C645.82 116.68 644.725 111.266 644.725 105.594C644.725 99.9219 645.82 94.5078 648.012 89.3516C650.246 84.1953 653.211 79.7695 656.906 76.0742C660.645 72.3359 665.092 69.3711 670.248 67.1797C675.404 64.9453 680.818 63.8281 686.49 63.8281C692.979 63.8281 699.059 65.2246 704.73 68.0176C710.445 70.8105 715.258 74.6562 719.168 79.5547L715.559 82.4551C712.078 78.1152 707.803 74.6992 702.732 72.207C697.662 69.7148 692.248 68.4688 686.49 68.4688C681.463 68.4688 676.65 69.457 672.053 71.4336C667.498 73.3672 663.545 76.0098 660.193 79.3613C656.885 82.6699 654.242 86.623 652.266 91.2207C650.332 95.7754 649.365 100.566 649.365 105.594C649.365 110.621 650.332 115.434 652.266 120.031C654.242 124.586 656.885 128.539 660.193 131.891C663.545 135.199 667.498 137.842 672.053 139.818C676.65 141.752 681.463 142.719 686.49 142.719C692.42 142.719 697.984 141.516 703.184 139.109V134.34C697.984 136.832 692.42 138.078 686.49 138.078C680.604 138.078 675.168 136.639 670.184 133.76C665.199 130.838 661.246 126.885 658.324 121.9C655.445 116.916 654.006 111.48 654.006 105.594C654.006 99.707 655.445 94.2715 658.324 89.2871C661.246 84.3027 665.199 80.3711 670.184 77.4922C675.168 74.5703 680.604 73.1094 686.49 73.1094C691.518 73.1094 696.244 74.2051 700.67 76.3965C705.139 78.5449 708.877 81.5312 711.885 85.3555L708.211 88.1914C705.633 84.9258 702.432 82.3691 698.607 80.5215C694.826 78.6738 690.787 77.75 686.49 77.75C678.799 77.75 672.225 80.4785 666.768 85.9355C661.354 91.3926 658.646 97.9453 658.646 105.594C658.646 113.242 661.354 119.795 666.768 125.252C672.225 130.709 678.799 133.438 686.49 133.438C692.506 133.438 698.07 131.977 703.184 129.055V124.35C698.156 127.314 692.592 128.797 686.49 128.797C680.088 128.797 674.609 126.541 670.055 122.029C665.543 117.475 663.287 111.996 663.287 105.594C663.287 99.1914 665.543 93.7344 670.055 89.2227C674.609 84.668 680.088 82.3906 686.49 82.3906C690.1 82.3906 693.494 83.1855 696.674 84.7754C699.854 86.3223 702.518 88.4492 704.666 91.1562L700.928 93.9922C697.189 89.3516 692.377 87.0312 686.49 87.0312C681.377 87.0312 676.994 88.8574 673.342 92.5098C669.732 96.1191 667.928 100.48 667.928 105.594C667.928 110.707 669.732 115.09 673.342 118.742C676.994 122.352 681.377 124.156 686.49 124.156C693.064 124.156 698.629 122.33 703.184 118.678V104.949ZM731.027 104.949H735.668V152H731.027V104.949ZM721.746 104.949H726.387V152H721.746V104.949ZM712.465 104.949H717.105V152H712.465V104.949Z" fill="black"/>
<path d="M86.5605 81.7461L87.112 82.5803L87.9535 82.024L87.3899 81.1874L86.5605 81.7461ZM82.7578 84.2598L81.929 84.8192L82.4831 85.6401L83.3092 85.094L82.7578 84.2598ZM73.6699 76.1387L73.1903 77.0163L73.2025 77.0227L73.6699 76.1387ZM73.6699 121.127L73.1946 120.247L73.1904 120.249L73.6699 121.127ZM82.7578 112.941L83.3443 112.131L82.5072 111.525L81.929 112.382L82.7578 112.941ZM86.4961 115.648L87.3227 116.211L87.8694 115.408L87.0826 114.838L86.4961 115.648ZM49.8867 126.412L49.4915 127.331L49.4954 127.332L49.8867 126.412ZM33.8379 110.363L32.9176 110.755L32.9193 110.758L33.8379 110.363ZM33.8379 86.9668L34.7565 87.362L34.7581 87.3582L33.8379 86.9668ZM49.8867 70.8535L49.4953 69.9333L49.4915 69.9349L49.8867 70.8535ZM75.8613 72.0781L75.3801 72.9547L75.3867 72.9583L75.8613 72.0781ZM94.2305 76.4609L94.7755 77.2994L95.63 76.7439L95.0584 75.9001L94.2305 76.4609ZM90.3633 78.9746L89.5383 79.5398L90.09 80.3449L90.9083 79.813L90.3633 78.9746ZM77.9883 67.9531L77.5084 68.8305L77.5173 68.8353L77.9883 67.9531ZM44.1504 68.5332L44.6525 69.398L44.6577 69.395L44.1504 68.5332ZM31.4531 81.166L30.5914 80.6587L30.5883 80.6639L31.4531 81.166ZM31.4531 116.1L30.5883 116.602L30.5914 116.607L31.4531 116.1ZM44.1504 128.797L43.6431 129.659L43.6483 129.662L44.1504 128.797ZM90.4277 118.162L90.9984 117.341L90.1682 116.764L89.6004 117.6L90.4277 118.162ZM94.2305 120.805L95.0584 121.366L95.6126 120.547L94.8011 119.983L94.2305 120.805ZM80.1797 133.438L79.7064 132.557L79.7036 132.558L80.1797 133.438ZM80.1797 63.8281L79.7036 64.7075L79.7064 64.709L80.1797 63.8281ZM101.965 71.3047L102.51 72.1431L103.366 71.5868L102.792 70.7425L101.965 71.3047ZM98.0977 73.8184L97.2712 74.3813L97.8221 75.1901L98.6426 74.6568L98.0977 73.8184ZM82.3711 59.7676L81.8935 60.6462L81.9005 60.6499L82.3711 59.7676ZM30.3574 129.893L29.6464 130.596L29.6542 130.604L30.3574 129.893ZM98.0977 123.383L98.6932 122.579L97.8571 121.96L97.2712 122.82L98.0977 123.383ZM101.836 126.154L102.661 126.719L103.205 125.924L102.431 125.351L101.836 126.154ZM84.498 141.688L84.9709 142.569L84.9728 142.568L84.498 141.688ZM37.1895 140.85L36.6837 141.712L36.6874 141.714L37.1895 140.85ZM19.4004 123.061L18.5355 123.563L18.5377 123.566L19.4004 123.061ZM19.4004 74.2051L18.5377 73.6994L18.5355 73.7031L19.4004 74.2051ZM37.1895 56.4805L37.6915 57.3453L37.6952 57.3432L37.1895 56.4805ZM84.627 55.707L84.1481 56.5849L84.1522 56.5872L84.627 55.707ZM109.57 66.0195L110.115 66.858L110.972 66.301L110.397 65.4565L109.57 66.0195ZM105.703 68.5332L104.877 69.097L105.428 69.9045L106.248 69.3716L105.703 68.5332ZM86.6895 51.5176L86.2151 52.3979L86.2171 52.399L86.6895 51.5176ZM40.8633 49.5195L41.2543 50.4399L41.2572 50.4387L40.8633 49.5195ZM12.4395 77.9434L11.5203 77.5494L11.5191 77.5523L12.4395 77.9434ZM12.4395 119.387L11.5181 119.776L11.5212 119.783L12.4395 119.387ZM40.8633 147.811L40.4672 148.729L40.4744 148.732L40.8633 147.811ZM105.768 128.604L106.372 127.807L105.534 127.171L104.942 128.04L105.768 128.604ZM109.506 131.439L110.329 132.007L110.871 131.22L110.11 130.643L109.506 131.439ZM88.8809 149.873L89.3531 150.755L89.3566 150.753L88.8809 149.873ZM39.0586 152L39.4545 151.082L39.4518 151.081L39.0586 152ZM20.5605 139.689L19.8505 140.394L19.8564 140.399L20.5605 139.689ZM8.18555 121.191L7.26524 121.583L7.26813 121.589L8.18555 121.191ZM8.18555 76.1387L7.26725 75.7428L7.26612 75.7454L8.18555 76.1387ZM39.0586 45.2656L39.4518 46.1851L39.4545 46.1839L39.0586 45.2656ZM86.0091 80.9119L82.2064 83.4255L83.3092 85.094L87.112 82.5803L86.0091 80.9119ZM83.5867 83.7003C81.1725 80.1238 78.018 77.3065 74.1373 75.2546L73.2025 77.0227C76.7984 78.924 79.7025 81.5207 81.929 84.8192L83.5867 83.7003ZM74.1495 75.2612C70.3025 73.1587 66.1193 72.1094 61.6172 72.1094V74.1094C65.7948 74.1094 69.6467 75.0795 73.1904 77.0162L74.1495 75.2612ZM61.6172 72.1094C54.305 72.1094 48.0351 74.707 42.8632 79.8788L44.2774 81.293C49.0743 76.4961 54.8356 74.1094 61.6172 74.1094V72.1094ZM42.8632 79.8788C37.6914 85.0507 35.0938 91.3206 35.0938 98.6328H37.0938C37.0938 91.8512 39.4805 86.0899 44.2774 81.293L42.8632 79.8788ZM35.0938 98.6328C35.0938 105.945 37.6914 112.215 42.8632 117.387L44.2774 115.973C39.4805 111.176 37.0938 105.414 37.0938 98.6328H35.0938ZM42.8632 117.387C48.0351 122.559 54.305 125.156 61.6172 125.156V123.156C54.8356 123.156 49.0743 120.769 44.2774 115.973L42.8632 117.387ZM61.6172 125.156C66.1193 125.156 70.3025 124.107 74.1495 122.004L73.1904 120.249C69.6467 122.186 65.7948 123.156 61.6172 123.156V125.156ZM74.1452 122.007C78.0219 119.912 81.1738 117.075 83.5867 113.501L81.929 112.382C79.7012 115.682 76.7945 118.302 73.1946 120.247L74.1452 122.007ZM82.1713 113.751L85.9096 116.458L87.0826 114.838L83.3443 112.131L82.1713 113.751ZM85.6695 115.086C83.0115 118.99 79.5668 122.083 75.3223 124.372L76.2715 126.132C80.7926 123.694 84.4807 120.385 87.3227 116.211L85.6695 115.086ZM75.3223 124.372C71.088 126.655 66.525 127.797 61.6172 127.797V129.797C66.85 129.797 71.7401 128.576 76.2715 126.132L75.3223 124.372ZM61.6172 127.797C57.669 127.797 53.892 127.029 50.2781 125.492L49.4954 127.332C53.358 128.975 57.4013 129.797 61.6172 129.797V127.797ZM50.2819 125.494C46.697 123.951 43.6032 121.873 40.9903 119.26L39.5761 120.674C42.3773 123.475 45.6858 125.693 49.4915 127.331L50.2819 125.494ZM40.9903 119.26C38.3774 116.647 36.2988 113.553 34.7565 109.968L32.9193 110.758C34.5567 114.564 36.7749 117.873 39.5761 120.674L40.9903 119.26ZM34.7581 109.972C33.2212 106.358 32.4531 102.581 32.4531 98.6328H30.4531C30.4531 102.849 31.2749 106.892 32.9177 110.755L34.7581 109.972ZM32.4531 98.6328C32.4531 94.6846 33.2212 90.9306 34.7565 87.362L32.9193 86.5716C31.2749 90.3936 30.4531 94.4169 30.4531 98.6328H32.4531ZM34.7581 87.3582C36.3009 83.7305 38.3793 80.6169 40.9903 78.0059L39.5761 76.5917C36.773 79.3948 34.5546 82.7265 32.9177 86.5754L34.7581 87.3582ZM40.9903 78.0059C43.6032 75.393 46.697 73.3144 50.2819 71.7721L49.4915 69.9349C45.6858 71.5723 42.3773 73.7906 39.5761 76.5917L40.9903 78.0059ZM50.2781 71.7738C53.892 70.2368 57.669 69.4688 61.6172 69.4688V67.4688C57.4013 67.4688 53.358 68.2905 49.4954 69.9333L50.2781 71.7738ZM61.6172 69.4688C66.5662 69.4688 71.1482 70.6313 75.3801 72.9547L76.3426 71.2015C71.8088 68.7124 66.8947 67.4688 61.6172 67.4688V69.4688ZM75.3867 72.9583C79.6287 75.2457 83.0728 78.3587 85.7312 82.3048L87.3899 81.1874C84.5483 76.9694 80.8596 73.6371 76.3359 71.1979L75.3867 72.9583ZM93.6855 75.6225L89.8183 78.1362L90.9083 79.813L94.7755 77.2994L93.6855 75.6225ZM91.1882 78.4094C87.9157 73.6333 83.6681 69.852 78.4593 67.071L77.5173 68.8353C82.4491 71.4683 86.4515 75.0347 89.5383 79.5398L91.1882 78.4094ZM78.4682 67.0758C73.2896 64.2431 67.6669 62.8281 61.6172 62.8281V64.8281C67.341 64.8281 72.6323 66.1632 77.5084 68.8304L78.4682 67.0758ZM61.6172 62.8281C55.1264 62.8281 49.1284 64.4422 43.6431 67.6714L44.6577 69.395C49.8286 66.3508 55.4751 64.8281 61.6172 64.8281V62.8281ZM43.6483 67.6684C38.171 70.8488 33.8149 75.183 30.5914 80.6587L32.3149 81.6733C35.3647 76.4927 39.4735 72.4051 44.6525 69.398L43.6483 67.6684ZM30.5883 80.6639C27.4037 86.1485 25.8125 92.1447 25.8125 98.6328H27.8125C27.8125 92.4881 29.315 86.8398 32.3179 81.6682L30.5883 80.6639ZM25.8125 98.6328C25.8125 105.121 27.4037 111.117 30.5883 116.602L32.3179 115.597C29.315 110.426 27.8125 104.777 27.8125 98.6328H25.8125ZM30.5914 116.607C33.8142 122.081 38.1686 126.436 43.6431 129.659L44.6577 127.935C39.4759 124.885 35.3655 120.774 32.3149 115.592L30.5914 116.607ZM43.6483 129.662C49.1329 132.846 55.1291 134.438 61.6172 134.438V132.438C55.4725 132.438 49.8242 130.935 44.6525 127.932L43.6483 129.662ZM61.6172 134.438C67.6668 134.438 73.3097 133.023 78.5295 130.192L77.576 128.433C72.6551 131.102 67.341 132.438 61.6172 132.438V134.438ZM78.5295 130.192C83.7376 127.367 87.9838 123.542 91.2551 118.724L89.6004 117.6C86.5123 122.149 82.5085 125.758 77.576 128.433L78.5295 130.192ZM89.8571 118.983L93.6598 121.626L94.8011 119.983L90.9984 117.341L89.8571 118.983ZM93.4025 120.244C89.8853 125.436 85.3242 129.538 79.7064 132.557L80.653 134.318C86.5508 131.149 91.3569 126.83 95.0584 121.366L93.4025 120.244ZM79.7036 132.558C74.1387 135.571 68.1154 137.078 61.6172 137.078V139.078C68.4393 139.078 74.791 137.492 80.6558 134.317L79.7036 132.558ZM61.6172 137.078C54.6577 137.078 48.2359 135.362 42.3328 131.929L41.3274 133.657C47.5414 137.271 54.3111 139.078 61.6172 139.078V137.078ZM42.3328 131.929C36.4241 128.492 31.7577 123.826 28.3215 117.917L26.5926 118.923C30.2032 125.131 35.1189 130.047 41.3274 133.657L42.3328 131.929ZM28.3215 117.917C24.8885 112.014 23.1719 105.592 23.1719 98.6328H21.1719C21.1719 105.939 22.9787 112.709 26.5926 118.923L28.3215 117.917ZM23.1719 98.6328C23.1719 91.6733 24.8885 85.2515 28.3215 79.3484L26.5926 78.343C22.9787 84.5571 21.1719 91.3267 21.1719 98.6328H23.1719ZM28.3215 79.3484C31.7577 73.4397 36.4241 68.7734 42.3328 65.3371L41.3274 63.6082C35.1189 67.2188 30.2032 72.1345 26.5926 78.343L28.3215 79.3484ZM42.3328 65.3371C48.2359 61.9041 54.6577 60.1875 61.6172 60.1875V58.1875C54.3111 58.1875 47.5414 59.9944 41.3274 63.6082L42.3328 65.3371ZM61.6172 60.1875C68.1154 60.1875 74.1387 61.695 79.7036 64.7075L80.6558 62.9487C74.791 59.7738 68.4393 58.1875 61.6172 58.1875V60.1875ZM79.7064 64.709C85.3242 67.7275 89.8853 71.8296 93.4025 77.0218L95.0584 75.9001C91.3569 70.436 86.5508 66.1162 80.653 62.9472L79.7064 64.709ZM101.42 70.4662L97.5527 72.9799L98.6426 74.6568L102.51 72.1431L101.42 70.4662ZM98.9241 73.2554C94.7923 67.1895 89.427 62.3974 82.8417 58.8852L81.9005 60.6499C88.2058 64.0127 93.3249 68.5878 97.2712 74.3813L98.9241 73.2554ZM82.8487 58.889C76.2967 55.3272 69.2141 53.5469 61.6172 53.5469V55.5469C68.8874 55.5469 75.6408 57.247 81.8935 60.6461L82.8487 58.889ZM61.6172 53.5469C55.5111 53.5469 49.6631 54.7338 44.0814 57.1071L44.8639 58.9476C50.1963 56.6803 55.778 55.5469 61.6172 55.5469V53.5469ZM44.0814 57.1071C38.5136 59.4745 33.6995 62.6812 29.6503 66.7304L31.0645 68.1446C34.9216 64.2875 39.5176 61.2208 44.8639 58.9476L44.0814 57.1071ZM29.6503 66.7304C25.6431 70.7376 22.4583 75.5306 20.0915 81.097L21.932 81.8796C24.2058 76.5319 27.2514 71.9577 31.0645 68.1446L29.6503 66.7304ZM20.0915 81.097C17.7181 86.6787 16.5312 92.5267 16.5312 98.6328H18.5312C18.5312 92.7936 19.6647 87.2119 21.932 81.8796L20.0915 81.097ZM16.5312 98.6328C16.5312 104.739 17.7181 110.587 20.0915 116.169L21.932 115.386C19.6647 110.054 18.5312 104.472 18.5312 98.6328H16.5312ZM20.0915 116.169C22.4579 121.734 25.6417 126.547 29.6465 130.596L31.0684 129.189C27.2529 125.332 24.2062 120.735 21.932 115.386L20.0915 116.169ZM29.6542 130.604C33.703 134.608 38.5159 137.792 44.0814 140.159L44.8639 138.318C39.5154 136.044 34.9181 132.997 31.0607 129.182L29.6542 130.604ZM44.0814 140.159C49.6631 142.532 55.5111 143.719 61.6172 143.719V141.719C55.778 141.719 50.1963 140.585 44.8639 138.318L44.0814 140.159ZM61.6172 143.719C69.2561 143.719 76.3603 141.939 82.9132 138.377L81.9579 136.619C75.7061 140.018 68.9314 141.719 61.6172 141.719V143.719ZM82.9132 138.377C89.453 134.821 94.7941 130.009 98.9241 123.946L97.2712 122.82C93.3231 128.616 88.2228 133.214 81.9579 136.619L82.9132 138.377ZM97.5021 124.186L101.24 126.958L102.431 125.351L98.6932 122.579L97.5021 124.186ZM101.011 125.59C96.6336 131.987 90.9754 137.057 84.0233 140.807L84.9728 142.568C92.2003 138.669 98.1008 133.384 102.661 126.719L101.011 125.59ZM84.0252 140.806C77.1277 144.507 69.6637 146.359 61.6172 146.359V148.359C69.9847 148.359 77.7747 146.43 84.9709 142.569L84.0252 140.806ZM61.6172 146.359C52.9814 146.359 45.0125 144.234 37.6915 139.985L36.6874 141.714C44.3195 146.145 52.6358 148.359 61.6172 148.359V146.359ZM37.6952 139.987C30.3662 135.691 24.5594 129.884 20.2631 122.555L18.5377 123.566C23.007 131.19 29.0596 137.243 36.6837 141.712L37.6952 139.987ZM20.2652 122.559C16.0157 115.237 13.8906 107.269 13.8906 98.6328H11.8906C11.8906 107.614 14.1054 115.931 18.5355 123.563L20.2652 122.559ZM13.8906 98.6328C13.8906 89.997 16.0157 82.0282 20.2652 74.7071L18.5355 73.7031C14.1054 81.3351 11.8906 89.6514 11.8906 98.6328H13.8906ZM20.2631 74.7108C24.5589 67.3827 30.3645 61.5983 37.6915 57.3453L36.6874 55.6156C29.0613 60.0423 23.0075 66.0744 18.5377 73.6994L20.2631 74.7108ZM37.6952 57.3432C45.0157 53.0518 52.9833 50.9062 61.6172 50.9062V48.9062C52.6339 48.9062 44.3163 51.1435 36.6837 55.6178L37.6952 57.3432ZM61.6172 50.9062C69.7036 50.9062 77.2084 52.7996 84.1481 56.5849L85.1058 54.8291C77.8658 50.88 70.0307 48.9062 61.6172 48.9062V50.9062ZM84.1522 56.5872C91.1028 60.3363 96.7605 65.4272 101.138 71.8669L102.792 70.7425C98.2317 64.0338 92.3308 58.7262 85.1017 54.8269L84.1522 56.5872ZM109.025 65.1811L105.158 67.6948L106.248 69.3716L110.115 66.858L109.025 65.1811ZM106.529 67.9694C101.539 60.6587 95.0785 54.8788 87.1618 50.6362L86.2171 52.399C93.8551 56.4923 100.071 62.0561 104.877 69.097L106.529 67.9694ZM87.1638 50.6373C79.2804 46.3889 70.7594 44.2656 61.6172 44.2656V46.2656C70.4359 46.2656 78.6298 48.3103 86.2151 52.3979L87.1638 50.6373ZM61.6172 44.2656C54.2634 44.2656 47.2114 45.711 40.4694 48.6004L41.2572 50.4387C47.7496 47.6562 54.5335 46.2656 61.6172 46.2656V44.2656ZM40.4723 48.5991C33.787 51.4393 28.0061 55.2907 23.1405 60.1562L24.5548 61.5704C29.2283 56.8968 34.7911 53.1857 41.2543 50.4399L40.4723 48.5991ZM23.1405 60.1562C18.2751 65.0216 14.403 70.8233 11.5203 77.5494L13.3586 78.3373C16.1478 71.8291 19.8811 66.244 24.5548 61.5704L23.1405 60.1562ZM11.5191 77.5523C8.67299 84.2516 7.25 91.2812 7.25 98.6328H9.25C9.25 91.547 10.62 84.7836 13.3598 78.3344L11.5191 77.5523ZM7.25 98.6328C7.25 105.984 8.67298 113.035 11.5182 119.776L13.3608 118.998C10.62 112.504 9.25 105.719 9.25 98.6328H7.25ZM11.5212 119.783C14.4041 126.466 18.2762 132.245 23.1405 137.109L24.5548 135.695C19.88 131.02 16.1466 125.456 13.3577 118.991L11.5212 119.783ZM23.1405 137.109C28.0049 141.974 33.7841 145.846 40.4672 148.729L41.2594 146.892C34.794 144.103 29.2295 140.37 24.5548 135.695L23.1405 137.109ZM40.4744 148.732C47.2153 151.577 54.2656 153 61.6172 153V151C54.5313 151 47.7456 149.63 41.2521 146.889L40.4744 148.732ZM61.6172 153C70.7613 153 79.3041 150.854 87.23 146.563L86.2778 144.804C78.649 148.935 70.4341 151 61.6172 151V153ZM87.23 146.563C95.1448 142.278 101.604 136.477 106.593 129.167L104.942 128.04C100.135 135.082 93.9177 140.668 86.2778 144.804L87.23 146.563ZM105.163 129.4L108.901 132.236L110.11 130.643L106.372 127.807L105.163 129.4ZM108.682 130.872C103.446 138.474 96.6909 144.512 88.4052 148.993L89.3566 150.753C97.9146 146.124 104.91 139.874 110.329 132.007L108.682 130.872ZM88.4086 148.992C80.1351 153.424 71.2099 155.641 61.6172 155.641V157.641C71.5323 157.641 80.7828 155.346 89.3531 150.755L88.4086 148.992ZM61.6172 155.641C53.8892 155.641 46.5044 154.121 39.4545 151.082L38.6627 152.918C45.9643 156.066 53.6186 157.641 61.6172 157.641V155.641ZM39.4518 151.081C32.428 148.076 26.3692 144.042 21.2647 138.979L19.8564 140.399C25.1503 145.65 31.4236 149.822 38.6653 152.919L39.4518 151.081ZM21.2706 138.985C16.2072 133.88 12.1503 127.819 9.10297 120.793L7.26813 121.589C10.4083 128.829 14.6014 135.101 19.8505 140.394L21.2706 138.985ZM9.10583 120.8C6.10811 113.749 4.60938 106.363 4.60938 98.6328H2.60938C2.60938 106.629 4.16142 114.282 7.26527 121.583L9.10583 120.8ZM4.60938 98.6328C4.60938 90.9028 6.10809 83.5387 9.10498 76.5319L7.26612 75.7454C4.16144 83.0042 2.60938 90.6362 2.60938 98.6328H4.60938ZM9.10384 76.5346C12.1511 69.4666 16.2071 63.4083 21.2677 58.3477L19.8534 56.9335C14.6015 62.1855 10.4075 68.4592 7.26726 75.7428L9.10384 76.5346ZM21.2677 58.3477C26.3718 53.2435 32.4297 49.1885 39.4518 46.1851L38.6653 44.3462C31.4219 47.4443 25.1477 51.6393 19.8534 56.9335L21.2677 58.3477ZM39.4545 46.1839C46.5044 43.1444 53.8892 41.625 61.6172 41.625V39.625C53.6186 39.625 45.9643 41.1993 38.6627 44.3473L39.4545 46.1839ZM61.6172 41.625C71.252 41.625 80.1973 43.8629 88.4696 48.3366L89.421 46.5774C80.8495 41.9418 71.5761 39.625 61.6172 39.625V41.625ZM88.4696 48.3366C96.7527 52.8163 103.507 58.8959 108.744 66.5826L110.397 65.4565C104.978 57.5025 97.9817 51.2072 89.421 46.5774L88.4696 48.3366ZM118.529 59.1875V58.1875H117.529V59.1875H118.529ZM123.17 59.1875H124.17V58.1875H123.17V59.1875ZM123.17 152V153H124.17V152H123.17ZM118.529 152H117.529V153H118.529V152ZM146.373 59.1875V58.1875H145.373V59.1875H146.373ZM151.014 59.1875H152.014V58.1875H151.014V59.1875ZM151.014 128.797H150.014V129.797H151.014V128.797ZM185.238 128.797H186.238V127.797H185.238V128.797ZM185.238 133.438V134.438H186.238V133.438H185.238ZM151.014 133.438V132.438H150.014V133.438H151.014ZM151.014 138.078H150.014V139.078H151.014V138.078ZM185.238 138.078H186.238V137.078H185.238V138.078ZM185.238 142.719V143.719H186.238V142.719H185.238ZM151.014 142.719V141.719H150.014V142.719H151.014ZM151.014 147.359H150.014V148.359H151.014V147.359ZM185.238 147.359H186.238V146.359H185.238V147.359ZM185.238 152V153H186.238V152H185.238ZM146.373 152H145.373V153H146.373V152ZM137.092 59.1875V58.1875H136.092V59.1875H137.092ZM141.732 59.1875H142.732V58.1875H141.732V59.1875ZM141.732 152V153H142.732V152H141.732ZM137.092 152H136.092V153H137.092V152ZM127.811 59.1875V58.1875H126.811V59.1875H127.811ZM132.451 59.1875H133.451V58.1875H132.451V59.1875ZM132.451 152V153H133.451V152H132.451ZM127.811 152H126.811V153H127.811V152ZM118.529 60.1875H123.17V58.1875H118.529V60.1875ZM122.17 59.1875V152H124.17V59.1875H122.17ZM123.17 151H118.529V153H123.17V151ZM119.529 152V59.1875H117.529V152H119.529ZM146.373 60.1875H151.014V58.1875H146.373V60.1875ZM150.014 59.1875V128.797H152.014V59.1875H150.014ZM151.014 129.797H185.238V127.797H151.014V129.797ZM184.238 128.797V133.438H186.238V128.797H184.238ZM185.238 132.438H151.014V134.438H185.238V132.438ZM150.014 133.438V138.078H152.014V133.438H150.014ZM151.014 139.078H185.238V137.078H151.014V139.078ZM184.238 138.078V142.719H186.238V138.078H184.238ZM185.238 141.719H151.014V143.719H185.238V141.719ZM150.014 142.719V147.359H152.014V142.719H150.014ZM151.014 148.359H185.238V146.359H151.014V148.359ZM184.238 147.359V152H186.238V147.359H184.238ZM185.238 151H146.373V153H185.238V151ZM147.373 152V59.1875H145.373V152H147.373ZM137.092 60.1875H141.732V58.1875H137.092V60.1875ZM140.732 59.1875V152H142.732V59.1875H140.732ZM141.732 151H137.092V153H141.732V151ZM138.092 152V59.1875H136.092V152H138.092ZM127.811 60.1875H132.451V58.1875H127.811V60.1875ZM131.451 59.1875V152H133.451V59.1875H131.451ZM132.451 151H127.811V153H132.451V151ZM128.811 152V59.1875H126.811V152H128.811ZM223.33 59.1875V58.1875H222.33V59.1875H223.33ZM227.971 59.1875H228.971V58.1875H227.971V59.1875ZM227.971 152V153H228.971V152H227.971ZM223.33 152H222.33V153H223.33V152ZM214.049 59.1875V58.1875H213.049V59.1875H214.049ZM218.689 59.1875H219.689V58.1875H218.689V59.1875ZM218.689 152V153H219.689V152H218.689ZM214.049 152H213.049V153H214.049V152ZM204.768 59.1875V58.1875H203.768V59.1875H204.768ZM209.408 59.1875H210.408V58.1875H209.408V59.1875ZM209.408 152V153H210.408V152H209.408ZM204.768 152H203.768V153H204.768V152ZM195.486 59.1875V58.1875H194.486V59.1875H195.486ZM200.127 59.1875H201.127V58.1875H200.127V59.1875ZM200.127 152V153H201.127V152H200.127ZM195.486 152H194.486V153H195.486V152ZM223.33 60.1875H227.971V58.1875H223.33V60.1875ZM226.971 59.1875V152H228.971V59.1875H226.971ZM227.971 151H223.33V153H227.971V151ZM224.33 152V59.1875H222.33V152H224.33ZM214.049 60.1875H218.689V58.1875H214.049V60.1875ZM217.689 59.1875V152H219.689V59.1875H217.689ZM218.689 151H214.049V153H218.689V151ZM215.049 152V59.1875H213.049V152H215.049ZM204.768 60.1875H209.408V58.1875H204.768V60.1875ZM208.408 59.1875V152H210.408V59.1875H208.408ZM209.408 151H204.768V153H209.408V151ZM205.768 152V59.1875H203.768V152H205.768ZM195.486 60.1875H200.127V58.1875H195.486V60.1875ZM199.127 59.1875V152H201.127V59.1875H199.127ZM200.127 151H195.486V153H200.127V151ZM196.486 152V59.1875H194.486V152H196.486ZM299.385 152V153H300.385V152H299.385ZM294.744 152H293.744V153H294.744V152ZM294.1 90.834L293.18 91.2279L293.192 91.2549L293.205 91.2812L294.1 90.834ZM289.975 87.6758L289.695 88.6358L289.718 88.6425L289.741 88.6482L289.975 87.6758ZM286.945 87.1602L286.859 88.1564L286.88 88.1583L286.902 88.1592L286.945 87.1602ZM279.598 87.1602L279.641 88.1592L279.663 88.1583L279.684 88.1564L279.598 87.1602ZM276.504 87.6758L276.746 88.6459L276.76 88.6425L276.774 88.6387L276.504 87.6758ZM272.379 90.834L271.476 90.4041L271.471 90.4138L271.467 90.4236L272.379 90.834ZM271.799 152V153H272.799V152H271.799ZM267.158 152H266.158V153H267.158V152ZM308.666 152V153H309.666V152H308.666ZM304.025 152H303.025V153H304.025V152ZM298.225 81.8105L297.647 82.6268L297.657 82.6341L298.225 81.8105ZM268.254 81.8105L268.826 82.6311L268.827 82.6298L268.254 81.8105ZM262.518 152V153H263.518V152H262.518ZM257.877 152H256.877V153H257.877V152ZM270.445 75.3652L270.809 76.2967L270.815 76.2944L270.445 75.3652ZM296.033 75.3652L295.66 76.2931L295.673 76.298L296.033 75.3652ZM317.947 152V153H318.947V152H317.947ZM313.307 152H312.307V153H313.307V152ZM310.922 83.0352L310.018 83.4633L310.023 83.4729L310.922 83.0352ZM255.557 83.0352L254.657 82.5974L254.653 82.6071L255.557 83.0352ZM253.236 152V153H254.236V152H253.236ZM248.596 152H247.596V153H248.596V152ZM251.303 81.2305L250.402 80.7954L250.398 80.8037L251.303 81.2305ZM258.779 71.7559L259.401 72.5388L259.408 72.5336L258.779 71.7559ZM307.764 71.7559L307.135 72.5336L307.142 72.5388L307.764 71.7559ZM315.176 81.2305L314.271 81.6573L314.275 81.6655L315.176 81.2305ZM327.229 152V153H328.229V152H327.229ZM322.588 152H321.588V153H322.588V152ZM319.43 80.5215L318.528 80.9542L318.532 80.9615L319.43 80.5215ZM311.051 69.4355L310.386 70.1825L310.391 70.187L311.051 69.4355ZM263.484 63.3125L263.902 64.221L263.905 64.2197L263.484 63.3125ZM249.305 75.4297L250.136 75.9859L250.138 75.9828L249.305 75.4297ZM243.955 152V153H244.955V152H243.955ZM239.314 152H238.314V153H239.314V152ZM252.205 65.1172L251.562 64.351L251.558 64.3544L252.205 65.1172ZM266.191 57.3184L265.866 56.3727L265.864 56.3736L266.191 57.3184ZM310.986 62.6035L310.42 63.4278L310.986 63.8167L311.552 63.4278L310.986 62.6035ZM355.717 57.3184L355.389 58.2632L355.392 58.264L355.717 57.3184ZM369.703 65.1172L369.056 65.88L369.061 65.8834L369.703 65.1172ZM382.658 152V153H383.658V152H382.658ZM378.018 152H377.018V153H378.018V152ZM372.668 75.4941L371.835 76.0473L371.837 76.0504L372.668 75.4941ZM358.424 63.3125L358.001 64.2185L358.003 64.2197L358.424 63.3125ZM314.854 65.6328L314.319 64.7878L313.184 65.5061L314.197 66.3874L314.854 65.6328ZM318.141 68.9844L317.388 69.6429L317.932 70.2643L318.645 69.8479L318.141 68.9844ZM363.193 71.7559L362.565 72.5336L362.571 72.5388L363.193 71.7559ZM370.605 81.2305L369.701 81.6573L369.705 81.6655L370.605 81.2305ZM373.377 152V153H374.377V152H373.377ZM368.736 152H367.736V153H368.736V152ZM366.352 83.0352L365.448 83.4633L365.452 83.4729L366.352 83.0352ZM320.977 72.6582L320.488 71.7858L319.561 72.3052L320.135 73.199L320.977 72.6582ZM323.297 76.6543L322.413 77.1222L322.893 78.0279L323.786 77.5263L323.297 76.6543ZM351.463 75.3652L351.09 76.2931L351.102 76.298L351.463 75.3652ZM364.096 152V153H365.096V152H364.096ZM359.455 152H358.455V153H359.455V152ZM353.654 81.8105L353.076 82.6268L353.087 82.6341L353.654 81.8105ZM325.102 80.8438L324.592 79.9835L323.892 80.398L324.155 81.1674L325.102 80.8438ZM326.391 85.4844L325.411 85.686L325.732 87.2435L326.997 86.2798L326.391 85.4844ZM354.814 152V153H355.814V152H354.814ZM350.174 152H349.174V153H350.174V152ZM349.529 90.834L348.61 91.2279L348.622 91.2549L348.635 91.2812L349.529 90.834ZM345.404 87.6758L345.124 88.6358L345.147 88.6425L345.171 88.6482L345.404 87.6758ZM342.375 87.1602L342.288 88.1564L342.31 88.1583L342.332 88.1592L342.375 87.1602ZM335.027 87.1602L335.071 88.1592L335.092 88.1583L335.114 88.1564L335.027 87.1602ZM331.934 87.6758L332.176 88.6459L332.19 88.6425L332.203 88.6387L331.934 87.6758ZM327.809 90.834L326.906 90.4041L326.901 90.4138L326.897 90.4236L327.809 90.834ZM298.385 93.9922V152H300.385V93.9922H298.385ZM299.385 151H294.744V153H299.385V151ZM295.744 152V93.9922H293.744V152H295.744ZM295.744 93.9922C295.744 92.6353 295.511 91.42 294.994 90.3868L293.205 91.2812C293.548 91.9668 293.744 92.8568 293.744 93.9922H295.744ZM295.019 90.4401C294.578 89.4107 293.962 88.5651 293.144 87.9651L291.961 89.5779C292.432 89.9231 292.848 90.4525 293.18 91.2279L295.019 90.4401ZM293.144 87.9651C292.36 87.39 291.365 86.9811 290.208 86.7034L289.741 88.6482C290.732 88.886 291.457 89.2077 291.961 89.5779L293.144 87.9651ZM290.255 86.7158C289.153 86.3944 288.064 86.2078 286.989 86.1611L286.902 88.1592C287.803 88.1984 288.734 88.3556 289.695 88.6358L290.255 86.7158ZM287.032 86.1639C286.005 86.0746 284.749 86.0312 283.271 86.0312V88.0312C284.716 88.0312 285.909 88.0738 286.859 88.1564L287.032 86.1639ZM283.271 86.0312C281.794 86.0312 280.538 86.0746 279.511 86.1639L279.684 88.1564C280.634 88.0738 281.827 88.0312 283.271 88.0312V86.0312ZM279.554 86.1611C278.48 86.2078 277.373 86.394 276.234 86.7128L276.774 88.6387C277.783 88.356 278.738 88.1985 279.641 88.1592L279.554 86.1611ZM276.261 86.7056C275.144 86.9851 274.176 87.395 273.399 87.9651L274.582 89.5779C275.093 89.2027 275.802 88.8821 276.746 88.6459L276.261 86.7056ZM273.399 87.9651C272.592 88.5571 271.959 89.3891 271.476 90.4041L273.282 91.2639C273.658 90.4742 274.1 89.9312 274.582 89.5779L273.399 87.9651ZM271.467 90.4236C271.007 91.4465 270.799 92.648 270.799 93.9922H272.799C272.799 92.8442 272.978 91.9402 273.291 91.2443L271.467 90.4236ZM270.799 93.9922V152H272.799V93.9922H270.799ZM271.799 151H267.158V153H271.799V151ZM268.158 152V93.9922H266.158V152H268.158ZM268.158 93.9922C268.158 90.3847 269.393 87.8147 271.771 86.1025C274.21 84.3466 277.99 83.3906 283.271 83.3906V81.3906C277.81 81.3906 273.535 82.3682 270.602 84.4795C267.609 86.6345 266.158 89.8653 266.158 93.9922H268.158ZM283.271 83.3906C288.553 83.3906 292.333 84.3466 294.772 86.1025C297.15 87.8147 298.385 90.3847 298.385 93.9922H300.385C300.385 89.8653 298.934 86.6345 295.941 84.4795C293.008 82.3682 288.733 81.3906 283.271 81.3906V83.3906ZM307.666 93.9922V152H309.666V93.9922H307.666ZM308.666 151H304.025V153H308.666V151ZM305.025 152V93.9922H303.025V152H305.025ZM305.025 93.9922C305.025 88.2677 302.977 83.8701 298.792 80.987L297.657 82.6341C301.207 85.0791 303.025 88.8026 303.025 93.9922H305.025ZM298.802 80.9943C294.764 78.1354 289.559 76.75 283.271 76.75V78.75C289.273 78.75 294.037 80.0716 297.647 82.6268L298.802 80.9943ZM283.271 76.75C276.983 76.75 271.76 78.1357 267.68 80.9913L268.827 82.6298C272.482 80.0713 277.271 78.75 283.271 78.75V76.75ZM267.682 80.99C263.541 83.875 261.518 88.2722 261.518 93.9922H263.518C263.518 88.7981 265.318 85.0742 268.826 82.6311L267.682 80.99ZM261.518 93.9922V152H263.518V93.9922H261.518ZM262.518 151H257.877V153H262.518V151ZM258.877 152V93.9922H256.877V152H258.877ZM258.877 93.9922C258.877 89.6605 259.987 86.0048 262.169 82.9749L260.546 81.8063C258.087 85.2218 256.877 89.3005 256.877 93.9922H258.877ZM262.169 82.9749C264.375 79.9105 267.249 77.6882 270.809 76.2966L270.081 74.4338C266.166 75.9641 262.98 78.4255 260.546 81.8063L262.169 82.9749ZM270.815 76.2944C274.46 74.8446 278.607 74.1094 283.271 74.1094V72.1094C278.397 72.1094 273.993 72.878 270.076 74.436L270.815 76.2944ZM283.271 74.1094C287.936 74.1094 292.06 74.8447 295.66 76.293L296.406 74.4375C292.53 72.878 288.146 72.1094 283.271 72.1094V74.1094ZM295.673 76.298C299.277 77.6906 302.17 79.9132 304.374 82.9749L305.997 81.8063C303.561 78.4228 300.352 75.9618 296.394 74.4324L295.673 76.298ZM304.374 82.9749C306.556 86.0048 307.666 89.6605 307.666 93.9922H309.666C309.666 89.3005 308.456 85.2218 305.997 81.8063L304.374 82.9749ZM316.947 93.9922V152H318.947V93.9922H316.947ZM317.947 151H313.307V153H317.947V151ZM314.307 152V93.9922H312.307V152H314.307ZM314.307 93.9922C314.307 89.8186 313.484 86.0141 311.821 82.5974L310.023 83.4729C311.539 86.5875 312.307 90.0876 312.307 93.9922H314.307ZM311.826 82.6071C310.214 79.2041 307.966 76.3909 305.084 74.1845L303.869 75.7725C306.487 77.777 308.536 80.335 310.018 83.4632L311.826 82.6071ZM305.084 74.1845C302.233 72.001 298.945 70.3382 295.233 69.1892L294.642 71.0998C298.149 72.1853 301.221 73.7451 303.869 75.7725L305.084 74.1845ZM295.233 69.1892C291.519 68.0395 287.529 67.4688 283.271 67.4688V69.4688C287.349 69.4688 291.138 70.0152 294.642 71.0998L295.233 69.1892ZM283.271 67.4688C279.014 67.4688 275.024 68.0395 271.31 69.1892L271.901 71.0998C275.405 70.0152 279.194 69.4688 283.271 69.4688V67.4688ZM271.31 69.1892C267.598 70.3382 264.31 72.001 261.458 74.1845L262.674 75.7725C265.322 73.7451 268.394 72.1853 271.901 71.0998L271.31 69.1892ZM261.458 74.1845C258.579 76.3891 256.312 79.199 254.658 82.5974L256.456 83.4729C257.981 80.34 260.054 77.7789 262.674 75.7725L261.458 74.1845ZM254.653 82.6071C253.036 86.0215 252.236 89.8226 252.236 93.9922H254.236C254.236 90.0836 254.984 86.58 256.46 83.4632L254.653 82.6071ZM252.236 93.9922V152H254.236V93.9922H252.236ZM253.236 151H248.596V153H253.236V151ZM249.596 152V93.9922H247.596V152H249.596ZM249.596 93.9922C249.596 89.4401 250.472 85.3342 252.207 81.6572L250.398 80.8037C248.524 84.7751 247.596 89.177 247.596 93.9922H249.596ZM252.203 81.6655C253.989 77.9684 256.389 74.9318 259.401 72.5388L258.157 70.9729C254.896 73.5642 252.311 76.8441 250.402 80.7954L252.203 81.6655ZM259.408 72.5336C262.441 70.0821 266.005 68.1822 270.111 66.8412L269.49 64.94C265.175 66.3491 261.391 68.3593 258.151 70.9781L259.408 72.5336ZM270.111 66.8412C274.215 65.5014 278.599 64.8281 283.271 64.8281V62.8281C278.405 62.8281 273.809 63.5299 269.49 64.94L270.111 66.8412ZM283.271 64.8281C287.944 64.8281 292.328 65.5014 296.432 66.8412L297.053 64.94C292.734 63.5299 288.138 62.8281 283.271 62.8281V64.8281ZM296.432 66.8412C300.538 68.1822 304.102 70.0821 307.135 72.5336L308.392 70.9781C305.152 68.3593 301.368 66.3491 297.053 64.94L296.432 66.8412ZM307.142 72.5388C310.151 74.9302 312.529 77.9639 314.271 81.6572L316.08 80.8037C314.214 76.8486 311.649 73.5659 308.386 70.9729L307.142 72.5388ZM314.275 81.6655C316.051 85.3406 316.947 89.4436 316.947 93.9922H318.947C318.947 89.1736 317.996 84.7688 316.076 80.7954L314.275 81.6655ZM327.229 151H322.588V153H327.229V151ZM323.588 152V93.9922H321.588V152H323.588ZM323.588 93.9922C323.588 89.1527 322.499 84.5122 320.328 80.0815L318.532 80.9615C320.572 85.1245 321.588 89.4645 321.588 93.9922H323.588ZM320.331 80.0888C318.211 75.6725 315.337 71.8682 311.711 68.6841L310.391 70.187C313.811 73.1904 316.523 76.7767 318.528 80.9542L320.331 80.0888ZM311.716 68.6886C308.093 65.4633 303.796 62.9109 298.838 61.0244L298.127 62.8936C302.88 64.7024 306.962 67.1344 310.386 70.1825L311.716 68.6886ZM298.838 61.0244C293.867 59.1327 288.676 58.1875 283.271 58.1875V60.1875C288.437 60.1875 293.387 61.0899 298.127 62.8936L298.838 61.0244ZM283.271 58.1875C275.881 58.1875 269.139 59.5877 263.064 62.4053L263.905 64.2197C269.689 61.5373 276.139 60.1875 283.271 60.1875V58.1875ZM263.067 62.404C257.012 65.1882 252.141 69.3499 248.472 74.8765L250.138 75.9828C253.601 70.7673 258.183 66.8509 263.902 64.221L263.067 62.404ZM248.474 74.8734C244.786 80.3824 242.955 86.7677 242.955 93.9922H244.955C244.955 87.1229 246.69 81.1333 250.136 75.9859L248.474 74.8734ZM242.955 93.9922V152H244.955V93.9922H242.955ZM243.955 151H239.314V153H243.955V151ZM240.314 152V93.9922H238.314V152H240.314ZM240.314 93.9922C240.314 88.1967 241.447 82.8852 243.702 78.0431L241.888 77.1991C239.502 82.3258 238.314 87.9283 238.314 93.9922H240.314ZM243.702 78.0431C245.965 73.1816 249.016 69.1324 252.852 65.8799L251.558 64.3544C247.488 67.8051 244.266 72.0918 241.888 77.1991L243.702 78.0431ZM252.848 65.8834C256.743 62.6162 261.297 60.0742 266.519 58.2632L265.864 56.3736C260.43 58.2578 255.659 60.9151 251.562 64.351L252.848 65.8834ZM266.517 58.264C271.777 56.4544 277.36 55.5469 283.271 55.5469V53.5469C277.152 53.5469 271.348 54.487 265.866 56.3727L266.517 58.264ZM283.271 55.5469C293.751 55.5469 302.787 58.185 310.42 63.4278L311.552 61.7792C303.545 56.2799 294.104 53.5469 283.271 53.5469V55.5469ZM311.552 63.4278C319.186 58.185 328.221 55.5469 338.701 55.5469V53.5469C327.869 53.5469 318.427 56.2799 310.42 61.7792L311.552 63.4278ZM338.701 55.5469C344.613 55.5469 350.173 56.4544 355.389 58.2632L356.044 56.3736C350.604 54.487 344.821 53.5469 338.701 53.5469V55.5469ZM355.392 58.264C360.656 60.0751 365.207 62.6162 369.056 65.8799L370.35 64.3544C366.293 60.9151 361.519 58.257 356.042 56.3727L355.392 58.264ZM369.061 65.8834C372.938 69.1358 376.009 73.1841 378.271 78.0431L380.084 77.1991C377.706 72.0894 374.46 67.8017 370.346 64.351L369.061 65.8834ZM378.271 78.0431C380.525 82.8852 381.658 88.1967 381.658 93.9922H383.658C383.658 87.9283 382.471 82.3258 380.084 77.1991L378.271 78.0431ZM381.658 93.9922V152H383.658V93.9922H381.658ZM382.658 151H378.018V153H382.658V151ZM379.018 152V93.9922H377.018V152H379.018ZM379.018 93.9922C379.018 86.8093 377.186 80.4458 373.499 74.9379L371.837 76.0504C375.283 81.1987 377.018 87.1672 377.018 93.9922H379.018ZM373.501 74.941C369.831 69.4138 364.939 65.2319 358.845 62.4053L358.003 64.2197C363.768 66.8931 368.372 70.8322 371.835 76.0473L373.501 74.941ZM358.847 62.4065C352.813 59.5877 346.092 58.1875 338.701 58.1875V60.1875C345.834 60.1875 352.261 61.5373 358.001 64.2185L358.847 62.4065ZM338.701 58.1875C329.428 58.1875 321.288 60.3766 314.319 64.7878L315.388 66.4778C321.997 62.2952 329.755 60.1875 338.701 60.1875V58.1875ZM314.197 66.3874C315.141 67.2079 316.204 68.2898 317.388 69.6429L318.893 68.3259C317.671 66.9289 316.543 65.7764 315.51 64.8782L314.197 66.3874ZM318.645 69.8479C324.357 66.5123 331.032 64.8281 338.701 64.8281V62.8281C330.73 62.8281 323.697 64.5815 317.636 68.1208L318.645 69.8479ZM338.701 64.8281C343.373 64.8281 347.758 65.5014 351.861 66.8412L352.482 64.94C348.164 63.5299 343.568 62.8281 338.701 62.8281V64.8281ZM351.861 66.8412C355.968 68.1822 359.532 70.0821 362.565 72.5336L363.822 70.9781C360.582 68.3593 356.798 66.3491 352.482 64.94L351.861 66.8412ZM362.571 72.5388C365.581 74.9302 367.958 77.9639 369.701 81.6572L371.51 80.8037C369.643 76.8486 367.079 73.5659 363.815 70.9729L362.571 72.5388ZM369.705 81.6655C371.481 85.3406 372.377 89.4436 372.377 93.9922H374.377C374.377 89.1736 373.426 84.7688 371.506 80.7954L369.705 81.6655ZM372.377 93.9922V152H374.377V93.9922H372.377ZM373.377 151H368.736V153H373.377V151ZM369.736 152V93.9922H367.736V152H369.736ZM369.736 93.9922C369.736 89.8186 368.914 86.0141 367.251 82.5974L365.452 83.4729C366.969 86.5875 367.736 90.0876 367.736 93.9922H369.736ZM367.255 82.6071C365.643 79.2041 363.396 76.3909 360.514 74.1845L359.298 75.7725C361.917 77.777 363.966 80.335 365.448 83.4632L367.255 82.6071ZM360.514 74.1845C357.662 72.001 354.375 70.3382 350.663 69.1892L350.072 71.0998C353.578 72.1853 356.65 73.7451 359.298 75.7725L360.514 74.1845ZM350.663 69.1892C346.948 68.0395 342.959 67.4688 338.701 67.4688V69.4688C342.779 69.4688 346.567 70.0152 350.072 71.0998L350.663 69.1892ZM338.701 67.4688C331.731 67.4688 325.648 68.8942 320.488 71.7858L321.465 73.5306C326.274 70.8363 332.007 69.4688 338.701 69.4688V67.4688ZM320.135 73.199C320.891 74.3751 321.651 75.6824 322.413 77.1222L324.181 76.1864C323.396 74.7043 322.609 73.3475 321.818 72.1174L320.135 73.199ZM323.786 77.5263C327.814 75.2657 332.771 74.1094 338.701 74.1094V72.1094C332.514 72.1094 327.201 73.3163 322.807 75.7822L323.786 77.5263ZM338.701 74.1094C343.366 74.1094 347.49 74.8447 351.09 76.293L351.836 74.4375C347.96 72.878 343.576 72.1094 338.701 72.1094V74.1094ZM351.102 76.298C354.707 77.6906 357.599 79.9132 359.804 82.9749L361.427 81.8063C358.991 78.4228 355.782 75.9618 351.823 74.4324L351.102 76.298ZM359.804 82.9749C361.985 86.0048 363.096 89.6605 363.096 93.9922H365.096C365.096 89.3005 363.886 85.2218 361.427 81.8063L359.804 82.9749ZM363.096 93.9922V152H365.096V93.9922H363.096ZM364.096 151H359.455V153H364.096V151ZM360.455 152V93.9922H358.455V152H360.455ZM360.455 93.9922C360.455 88.2677 358.407 83.8701 354.222 80.987L353.087 82.6341C356.636 85.0791 358.455 88.8026 358.455 93.9922H360.455ZM354.232 80.9943C350.193 78.1354 344.989 76.75 338.701 76.75V78.75C344.703 78.75 349.467 80.0716 353.077 82.6268L354.232 80.9943ZM338.701 76.75C333.001 76.75 328.274 77.8011 324.592 79.9835L325.611 81.704C328.89 79.7614 333.229 78.75 338.701 78.75V76.75ZM324.155 81.1674C324.702 82.7664 325.12 84.2722 325.411 85.686L327.37 85.2827C327.06 83.7746 326.618 82.1868 326.048 80.5201L324.155 81.1674ZM326.997 86.2798C329.451 84.4096 333.296 83.3906 338.701 83.3906V81.3906C333.107 81.3906 328.744 82.4341 325.785 84.6889L326.997 86.2798ZM338.701 83.3906C343.982 83.3906 347.763 84.3466 350.202 86.1025C352.58 87.8147 353.814 90.3847 353.814 93.9922H355.814C355.814 89.8653 354.363 86.6345 351.37 84.4795C348.438 82.3682 344.162 81.3906 338.701 81.3906V83.3906ZM353.814 93.9922V152H355.814V93.9922H353.814ZM354.814 151H350.174V153H354.814V151ZM351.174 152V93.9922H349.174V152H351.174ZM351.174 93.9922C351.174 92.6353 350.94 91.42 350.424 90.3868L348.635 91.2812C348.978 91.9668 349.174 92.8568 349.174 93.9922H351.174ZM350.448 90.4401C350.007 89.4107 349.392 88.5651 348.574 87.9651L347.391 89.5779C347.862 89.9231 348.278 90.4525 348.61 91.2279L350.448 90.4401ZM348.574 87.9651C347.79 87.39 346.795 86.9811 345.638 86.7034L345.171 88.6482C346.162 88.886 346.886 89.2077 347.391 89.5779L348.574 87.9651ZM345.684 86.7158C344.583 86.3944 343.493 86.2078 342.418 86.1611L342.332 88.1592C343.233 88.1984 344.164 88.3556 345.124 88.6358L345.684 86.7158ZM342.462 86.1639C341.435 86.0746 340.179 86.0312 338.701 86.0312V88.0312C340.145 88.0312 341.339 88.0738 342.288 88.1564L342.462 86.1639ZM338.701 86.0312C337.223 86.0312 335.968 86.0746 334.941 86.1639L335.114 88.1564C336.063 88.0738 337.257 88.0312 338.701 88.0312V86.0312ZM334.984 86.1611C333.91 86.2078 332.803 86.394 331.664 86.7128L332.203 88.6387C333.213 88.356 334.168 88.1985 335.071 88.1592L334.984 86.1611ZM331.691 86.7056C330.573 86.9851 329.606 87.395 328.829 87.9651L330.011 89.5779C330.523 89.2027 331.231 88.8821 332.176 88.6459L331.691 86.7056ZM328.829 87.9651C328.021 88.5571 327.389 89.3891 326.906 90.4041L328.711 91.2639C329.088 90.4742 329.529 89.9312 330.011 89.5779L328.829 87.9651ZM326.897 90.4236C326.436 91.4465 326.229 92.648 326.229 93.9922H328.229C328.229 92.8442 328.407 91.9402 328.721 91.2443L326.897 90.4236ZM326.229 93.9922V152H328.229V93.9922H326.229ZM466.963 105.078V106.078L467.41 104.184L466.963 105.078ZM466.834 105.014L466.136 104.297L465.128 105.279L466.387 105.908L466.834 105.014ZM466.898 70.9824L466.191 71.6896L466.198 71.6959L466.898 70.9824ZM398.9 63.8281V62.8281H397.9V63.8281H398.9ZM398.9 152V153H399.9V152H398.9ZM394.26 152H393.26V153H394.26V152ZM394.26 59.1875V58.1875H393.26V59.1875H394.26ZM464.191 63.1191L463.682 63.9796L463.692 63.9853L464.191 63.1191ZM474.826 73.625L473.966 74.1346L473.968 74.1383L474.826 73.625ZM473.215 105.465L472.414 104.866L471.974 105.455L472.404 106.051L473.215 105.465ZM474.762 137.949L475.621 138.461L475.623 138.458L474.762 137.949ZM464.256 148.068L463.791 147.183L463.788 147.185L464.256 148.068ZM420.621 151.484H419.621V152.484H420.621V151.484ZM420.621 146.844V145.844H419.621V146.844H420.621ZM466.963 139.818L467.667 140.529L467.667 140.529L466.963 139.818ZM466.898 105.143H465.898V105.551L466.184 105.842L466.898 105.143ZM420.621 128.281V127.281H419.621V128.281H420.621ZM420.621 132.922H419.621V133.922H420.621V132.922ZM457.166 130.086L457.857 130.809L457.858 130.808L457.166 130.086ZM457.102 115.004L456.38 115.696L456.387 115.704L457.102 115.004ZM420.557 111.781V110.781H419.557V111.781H420.557ZM420.557 116.422H419.557V117.422H420.557V116.422ZM453.814 118.227L453.082 118.907L453.088 118.914L453.095 118.921L453.814 118.227ZM420.621 137.562V136.562H419.621V137.562H420.621ZM420.621 142.203H419.621V143.203H420.621V142.203ZM463.676 136.531L464.379 137.242L464.379 137.242L463.676 136.531ZM466.576 112.297L465.717 112.808L465.721 112.815L465.725 112.822L466.576 112.297ZM459.035 104.949L458.573 104.062L456.913 104.927L458.555 105.826L459.035 104.949ZM466.576 97.9883L465.732 97.4529L465.73 97.4561L466.576 97.9883ZM463.611 74.2695L462.904 74.9767L462.912 74.9845L463.611 74.2695ZM403.541 68.4688V67.4688H402.541V68.4688H403.541ZM403.541 152H402.541V153H403.541V152ZM408.182 152V153H409.182V152H408.182ZM408.182 73.1094V72.1094H407.182V73.1094H408.182ZM460.324 77.5566L459.617 78.2637L459.622 78.2689L459.627 78.2739L460.324 77.5566ZM460.453 98.375L461.139 99.1032L461.144 99.0979L460.453 98.375ZM420.621 102.5V101.5H419.621V102.5H420.621ZM420.621 107.141H419.621V108.141H420.621V107.141ZM460.324 111.717L459.607 112.414L459.612 112.419L460.324 111.717ZM420.621 93.2188V92.2188H419.621V93.2188H420.621ZM420.621 97.8594H419.621V98.8594H420.621V97.8594ZM457.23 95.1523L457.905 95.8909L457.913 95.8829L457.23 95.1523ZM412.822 77.75V76.75H411.822V77.75H412.822ZM412.822 152H411.822V153H412.822V152ZM417.463 152V153H418.463V152H417.463ZM417.463 82.3906V81.3906H416.463V82.3906H417.463ZM453.814 84.0664L453.107 84.7735L453.121 84.7871L453.135 84.8002L453.814 84.0664ZM467.41 104.184L467.281 104.119L466.387 105.908L466.516 105.973L467.41 104.184ZM467.532 105.73C472.581 100.815 475.117 94.7986 475.117 87.7402H473.117C473.117 94.26 470.798 99.7592 466.136 104.297L467.532 105.73ZM475.117 87.7402C475.117 81.0129 472.593 75.1738 467.599 70.269L466.198 71.6959C470.829 76.2442 473.117 81.5769 473.117 87.7402H475.117ZM467.606 70.2753C462.655 65.3251 456.753 62.8281 449.947 62.8281V64.8281C456.204 64.8281 461.602 67.1007 466.191 71.6895L467.606 70.2753ZM449.947 62.8281H398.9V64.8281H449.947V62.8281ZM397.9 63.8281V152H399.9V63.8281H397.9ZM398.9 151H394.26V153H398.9V151ZM395.26 152V59.1875H393.26V152H395.26ZM394.26 60.1875H449.947V58.1875H394.26V60.1875ZM449.947 60.1875C454.836 60.1875 459.408 61.4484 463.682 63.9796L464.701 62.2587C460.123 59.5476 455.2 58.1875 449.947 58.1875V60.1875ZM463.692 63.9853C468.012 66.4778 471.433 69.8572 473.966 74.1346L475.687 73.1154C472.978 68.5413 469.308 64.9167 464.691 62.253L463.692 63.9853ZM473.968 74.1383C476.498 78.3685 477.758 82.8966 477.758 87.7402H479.758C479.758 82.5292 478.397 77.6471 475.684 73.1117L473.968 74.1383ZM477.758 87.7402C477.758 94.4253 475.965 100.117 472.414 104.866L474.016 106.064C477.855 100.93 479.758 94.8052 479.758 87.7402H477.758ZM472.404 106.051C475.98 110.998 477.758 116.423 477.758 122.352H479.758C479.758 115.991 477.84 110.158 474.025 104.879L472.404 106.051ZM477.758 122.352C477.758 128.082 476.463 133.101 473.901 137.441L475.623 138.458C478.389 133.774 479.758 128.395 479.758 122.352H477.758ZM473.903 137.437C471.327 141.758 467.958 144.997 463.791 147.183L464.721 148.954C469.234 146.585 472.868 143.078 475.621 138.461L473.903 137.437ZM463.788 147.185C459.646 149.38 455.039 150.484 449.947 150.484V152.484C455.34 152.484 460.272 151.312 464.724 148.952L463.788 147.185ZM449.947 150.484H420.621V152.484H449.947V150.484ZM421.621 151.484V146.844H419.621V151.484H421.621ZM420.621 147.844H449.947V145.844H420.621V147.844ZM449.947 147.844C456.83 147.844 462.754 145.397 467.667 140.529L466.259 139.108C461.719 143.607 456.299 145.844 449.947 145.844V147.844ZM467.667 140.529C472.632 135.608 475.117 129.527 475.117 122.352H473.117C473.117 129.012 470.833 134.576 466.259 139.108L467.667 140.529ZM475.117 122.352C475.117 119.023 474.397 115.748 472.969 112.535L471.141 113.348C472.463 116.322 473.117 119.321 473.117 122.352H475.117ZM472.969 112.535C471.552 109.349 469.77 106.645 467.613 104.443L466.184 105.842C468.152 107.851 469.807 110.347 471.141 113.348L472.969 112.535ZM467.898 105.143C467.898 105.275 467.865 105.558 467.622 105.801C467.379 106.044 467.096 106.078 466.963 106.078V104.078C466.787 104.078 466.472 104.123 466.207 104.387C465.943 104.652 465.898 104.967 465.898 105.143H467.898ZM449.947 127.281H420.621V129.281H449.947V127.281ZM419.621 128.281V132.922H421.621V128.281H419.621ZM420.621 133.922H449.947V131.922H420.621V133.922ZM449.947 133.922C453.03 133.922 455.687 132.884 457.857 130.809L456.475 129.363C454.692 131.069 452.536 131.922 449.947 131.922V133.922ZM457.858 130.808C460.105 128.657 461.195 125.802 461.195 122.352H459.195C459.195 125.347 458.266 127.648 456.474 129.364L457.858 130.808ZM461.195 122.352C461.195 119.281 460.05 116.585 457.816 114.304L456.387 115.704C458.278 117.634 459.195 119.836 459.195 122.352H461.195ZM457.823 114.311C455.593 111.988 452.955 110.781 449.947 110.781V112.781C452.353 112.781 454.485 113.723 456.38 115.696L457.823 114.311ZM449.947 110.781H420.557V112.781H449.947V110.781ZM419.557 111.781V116.422H421.557V111.781H419.557ZM420.557 117.422H449.947V115.422H420.557V117.422ZM449.947 117.422C451.094 117.422 452.128 117.88 453.082 118.907L454.547 117.546C453.267 116.167 451.722 115.422 449.947 115.422V117.422ZM453.095 118.921C454.091 119.954 454.555 121.086 454.555 122.352H456.555C456.555 120.524 455.858 118.905 454.534 117.532L453.095 118.921ZM454.555 122.352C454.555 124.048 454.079 125.218 453.251 126.013L454.636 127.456C455.956 126.188 456.555 124.437 456.555 122.352H454.555ZM453.251 126.013C452.376 126.853 451.298 127.281 449.947 127.281V129.281C451.776 129.281 453.362 128.679 454.636 127.456L453.251 126.013ZM449.947 136.562H420.621V138.562H449.947V136.562ZM419.621 137.562V142.203H421.621V137.562H419.621ZM420.621 143.203H449.947V141.203H420.621V143.203ZM449.947 143.203C455.541 143.203 460.369 141.207 464.379 137.242L462.973 135.82C459.334 139.418 455.009 141.203 449.947 141.203V143.203ZM464.379 137.242C468.443 133.223 470.477 128.237 470.477 122.352H468.477C468.477 127.724 466.643 132.191 462.973 135.82L464.379 137.242ZM470.477 122.352C470.477 118.593 469.455 115.061 467.427 111.772L465.725 112.822C467.565 115.806 468.477 118.977 468.477 122.352H470.477ZM467.436 111.786C465.457 108.458 462.815 105.88 459.516 104.072L458.555 105.826C461.529 107.456 463.914 109.776 465.717 112.808L467.436 111.786ZM459.497 105.836C462.792 104.121 465.438 101.678 467.423 98.5205L465.73 97.4561C463.933 100.314 461.552 102.512 458.573 104.062L459.497 105.836ZM467.421 98.5236C469.461 95.305 470.477 91.7017 470.477 87.7402H468.477C468.477 91.3413 467.559 94.57 465.732 97.4529L467.421 98.5236ZM470.477 87.7402C470.477 82.2972 468.4 77.5542 464.311 73.5546L462.912 74.9845C466.643 78.6333 468.477 82.8707 468.477 87.7402H470.477ZM464.318 73.5624C460.273 69.5167 455.467 67.4688 449.947 67.4688V69.4688C454.912 69.4688 459.216 71.2879 462.904 74.9766L464.318 73.5624ZM449.947 67.4688H403.541V69.4688H449.947V67.4688ZM402.541 68.4688V152H404.541V68.4688H402.541ZM403.541 153H408.182V151H403.541V153ZM409.182 152V73.1094H407.182V152H409.182ZM408.182 74.1094H449.947V72.1094H408.182V74.1094ZM449.947 74.1094C453.618 74.1094 456.827 75.4738 459.617 78.2637L461.031 76.8495C457.892 73.7098 454.183 72.1094 449.947 72.1094V74.1094ZM459.627 78.2739C462.46 81.0251 463.836 84.1675 463.836 87.7402H465.836C465.836 83.5785 464.205 79.9319 461.021 76.8394L459.627 78.2739ZM463.836 87.7402C463.836 91.7833 462.473 95.0607 459.762 97.6521L461.144 99.0979C464.277 96.1033 465.836 92.2909 465.836 87.7402H463.836ZM459.768 97.6468C457.035 100.219 453.779 101.5 449.947 101.5V103.5C454.279 103.5 458.028 102.031 461.138 99.1032L459.768 97.6468ZM449.947 101.5H435.768V103.5H449.947V101.5ZM435.768 101.5H420.621V103.5H435.768V101.5ZM419.621 102.5V107.141H421.621V102.5H419.621ZM420.621 108.141H435.768V106.141H420.621V108.141ZM435.768 108.141H449.947V106.141H435.768V108.141ZM449.947 108.141C453.608 108.141 456.815 109.54 459.607 112.414L461.041 111.02C457.904 107.792 454.193 106.141 449.947 106.141V108.141ZM459.612 112.419C462.448 115.295 463.836 118.592 463.836 122.352H465.836C465.836 118.033 464.216 114.24 461.036 111.015L459.612 112.419ZM463.836 122.352C463.836 126.579 462.465 129.963 459.757 132.591L461.15 134.026C464.285 130.983 465.836 127.062 465.836 122.352H463.836ZM459.757 132.591C457.022 135.245 453.77 136.562 449.947 136.562V138.562C454.289 138.562 458.041 137.044 461.15 134.026L459.757 132.591ZM449.947 92.2188H420.621V94.2188H449.947V92.2188ZM419.621 93.2188V97.8594H421.621V93.2188H419.621ZM420.621 98.8594H449.947V96.8594H420.621V98.8594ZM449.947 98.8594C453.055 98.8594 455.729 97.8771 457.905 95.8908L456.556 94.4139C454.779 96.0369 452.597 96.8594 449.947 96.8594V98.8594ZM457.913 95.8829C460.122 93.8183 461.195 91.0673 461.195 87.7402H459.195C459.195 90.6007 458.292 92.7911 456.548 94.4218L457.913 95.8829ZM461.195 87.7402C461.195 84.8217 460.034 82.2514 457.801 80.0648L456.402 81.4938C458.294 83.3462 459.195 85.4166 459.195 87.7402H461.195ZM457.801 80.0648C455.565 77.8757 452.934 76.75 449.947 76.75V78.75C452.374 78.75 454.513 79.6439 456.402 81.4938L457.801 80.0648ZM449.947 76.75H412.822V78.75H449.947V76.75ZM411.822 77.75V152H413.822V77.75H411.822ZM412.822 153H417.463V151H412.822V153ZM418.463 152V82.3906H416.463V152H418.463ZM417.463 83.3906H449.947V81.3906H417.463V83.3906ZM449.947 83.3906C451.12 83.3906 452.161 83.827 453.107 84.7735L454.522 83.3593C453.234 82.0714 451.696 81.3906 449.947 81.3906V83.3906ZM453.135 84.8002C454.124 85.7163 454.555 86.6866 454.555 87.7402H456.555C456.555 86.0439 455.825 84.565 454.494 83.3326L453.135 84.8002ZM454.555 87.7402C454.555 89.2866 454.092 90.3375 453.283 91.0501L454.604 92.5515C455.943 91.3735 456.555 89.7173 456.555 87.7402H454.555ZM453.283 91.0501C452.412 91.8165 451.323 92.2188 449.947 92.2188V94.2188C451.751 94.2188 453.327 93.6757 454.604 92.5515L453.283 91.0501ZM517.236 59.1875V58.1875H516.236V59.1875H517.236ZM521.877 59.1875H522.877V58.1875H521.877V59.1875ZM521.877 152V153H522.877V152H521.877ZM517.236 152H516.236V153H517.236V152ZM507.955 59.1875V58.1875H506.955V59.1875H507.955ZM512.596 59.1875H513.596V58.1875H512.596V59.1875ZM512.596 152V153H513.596V152H512.596ZM507.955 152H506.955V153H507.955V152ZM498.674 59.1875V58.1875H497.674V59.1875H498.674ZM503.314 59.1875H504.314V58.1875H503.314V59.1875ZM503.314 152V153H504.314V152H503.314ZM498.674 152H497.674V153H498.674V152ZM489.393 59.1875V58.1875H488.393V59.1875H489.393ZM494.033 59.1875H495.033V58.1875H494.033V59.1875ZM494.033 152V153H495.033V152H494.033ZM489.393 152H488.393V153H489.393V152ZM517.236 60.1875H521.877V58.1875H517.236V60.1875ZM520.877 59.1875V152H522.877V59.1875H520.877ZM521.877 151H517.236V153H521.877V151ZM518.236 152V59.1875H516.236V152H518.236ZM507.955 60.1875H512.596V58.1875H507.955V60.1875ZM511.596 59.1875V152H513.596V59.1875H511.596ZM512.596 151H507.955V153H512.596V151ZM508.955 152V59.1875H506.955V152H508.955ZM498.674 60.1875H503.314V58.1875H498.674V60.1875ZM502.314 59.1875V152H504.314V59.1875H502.314ZM503.314 151H498.674V153H503.314V151ZM499.674 152V59.1875H497.674V152H499.674ZM489.393 60.1875H494.033V58.1875H489.393V60.1875ZM493.033 59.1875V152H495.033V59.1875H493.033ZM494.033 151H489.393V153H494.033V151ZM490.393 152V59.1875H488.393V152H490.393ZM607.213 114.553L606.337 115.034L608.213 114.553H607.213ZM602.572 106.109H601.572V106.366L601.696 106.591L602.572 106.109ZM602.572 59.1875V58.1875H601.572V59.1875H602.572ZM607.213 59.1875H608.213V58.1875H607.213V59.1875ZM616.494 130.602L615.633 131.11L617.494 134.264V130.602H616.494ZM611.854 122.738H610.854V123.011L610.992 123.247L611.854 122.738ZM611.854 59.1875V58.1875H610.854V59.1875H611.854ZM616.494 59.1875H617.494V58.1875H616.494V59.1875ZM552.557 96.6348L553.433 96.1531L551.557 96.6348H552.557ZM557.197 105.078H558.197V104.821L558.074 104.596L557.197 105.078ZM557.197 152V153H558.197V152H557.197ZM552.557 152H551.557V153H552.557V152ZM543.275 79.9414L544.153 79.4626L542.275 79.9414H543.275ZM547.916 88.4492H548.916V88.1942L548.794 87.9704L547.916 88.4492ZM547.916 152V153H548.916V152H547.916ZM543.275 152H542.275V153H543.275V152ZM544.887 59.1875V58.1875H543.152L544.021 59.6887L544.887 59.1875ZM550.301 59.1875L551.166 58.6863L550.877 58.1875H550.301V59.1875ZM604.055 152V153H605.789L604.92 151.499L604.055 152ZM598.641 152L597.775 152.501L598.064 153H598.641V152ZM555.844 59.1875V58.1875H554.111L554.978 59.6878L555.844 59.1875ZM561.322 59.1875L562.188 58.6868L561.899 58.1875H561.322V59.1875ZM615.012 152V153H616.745L615.877 151.499L615.012 152ZM609.469 152L608.603 152.5L608.892 153H609.469V152ZM566.736 59.1875V58.1875H565.005L565.87 59.6873L566.736 59.1875ZM572.15 59.1875L573.016 58.6871L572.727 58.1875H572.15V59.1875ZM621.135 143.943L620.269 144.444L622.135 147.672V143.943H621.135ZM621.135 59.1875V58.1875H620.135V59.1875H621.135ZM625.775 59.1875H626.775V58.1875H625.775V59.1875ZM625.775 152V153H626.775V152H625.775ZM620.297 152L619.431 152.5L619.719 153H620.297V152ZM538.635 67.1797L539.5 66.6786L537.635 63.457V67.1797H538.635ZM538.635 152V153H539.635V152H538.635ZM533.994 152H532.994V153H533.994V152ZM533.994 59.1875V58.1875H532.994V59.1875H533.994ZM539.537 59.1875L540.403 58.6877L540.115 58.1875H539.537V59.1875ZM593.098 152V153H594.829L593.964 151.5L593.098 152ZM587.748 152L586.883 152.501L587.172 153H587.748V152ZM608.089 114.071L603.449 105.628L601.696 106.591L606.337 115.034L608.089 114.071ZM603.572 106.109V59.1875H601.572V106.109H603.572ZM602.572 60.1875H607.213V58.1875H602.572V60.1875ZM606.213 59.1875V114.553H608.213V59.1875H606.213ZM617.355 130.093L612.715 122.23L610.992 123.247L615.633 131.11L617.355 130.093ZM612.854 122.738V59.1875H610.854V122.738H612.854ZM611.854 60.1875H616.494V58.1875H611.854V60.1875ZM615.494 59.1875V130.602H617.494V59.1875H615.494ZM551.68 97.1164L556.321 105.56L558.074 104.596L553.433 96.1531L551.68 97.1164ZM556.197 105.078V152H558.197V105.078H556.197ZM557.197 151H552.557V153H557.197V151ZM553.557 152V96.6348H551.557V152H553.557ZM542.398 80.4203L547.038 88.9281L548.794 87.9704L544.153 79.4626L542.398 80.4203ZM546.916 88.4492V152H548.916V88.4492H546.916ZM547.916 151H543.275V153H547.916V151ZM544.275 152V79.9414H542.275V152H544.275ZM544.887 60.1875H550.301V58.1875H544.887V60.1875ZM549.435 59.6887L603.189 152.501L604.92 151.499L551.166 58.6863L549.435 59.6887ZM604.055 151H598.641V153H604.055V151ZM599.506 151.499L545.752 58.6863L544.021 59.6887L597.775 152.501L599.506 151.499ZM555.844 60.1875H561.322V58.1875H555.844V60.1875ZM560.457 59.6882L614.146 152.501L615.877 151.499L562.188 58.6868L560.457 59.6882ZM615.012 151H609.469V153H615.012V151ZM610.335 151.5L556.71 58.6872L554.978 59.6878L608.603 152.5L610.335 151.5ZM566.736 60.1875H572.15V58.1875H566.736V60.1875ZM571.285 59.6879L620.269 144.444L622.001 143.443L573.016 58.6871L571.285 59.6879ZM622.135 143.943V59.1875H620.135V143.943H622.135ZM621.135 60.1875H625.775V58.1875H621.135V60.1875ZM624.775 59.1875V152H626.775V59.1875H624.775ZM625.775 151H620.297V153H625.775V151ZM621.163 151.5L567.602 58.6877L565.87 59.6873L619.431 152.5L621.163 151.5ZM537.635 67.1797V152H539.635V67.1797H537.635ZM538.635 151H533.994V153H538.635V151ZM534.994 152V59.1875H532.994V152H534.994ZM533.994 60.1875H539.537V58.1875H533.994V60.1875ZM538.671 59.6873L592.232 152.5L593.964 151.5L540.403 58.6877L538.671 59.6873ZM593.098 151H587.748V153H593.098V151ZM588.613 151.499L539.5 66.6786L537.769 67.6808L586.883 152.501L588.613 151.499ZM703.184 104.949V103.949H702.184V104.949H703.184ZM707.824 104.949H708.824V103.949H707.824V104.949ZM707.824 152L708.235 152.912L708.824 152.647V152H707.824ZM666.639 152.58L666.242 153.498L666.245 153.499L666.639 152.58ZM639.504 125.445L638.585 125.839L638.586 125.842L639.504 125.445ZM639.504 85.8066L640.422 86.2028L640.423 86.2006L639.504 85.8066ZM666.639 58.6074L666.245 57.6883L666.242 57.6893L666.639 58.6074ZM708.791 59.7031L708.348 60.5998L708.353 60.6019L708.791 59.7031ZM726.387 73.7539L726.982 74.5572L727.815 73.9399L727.168 73.1299L726.387 73.7539ZM722.648 76.5254L721.871 77.1539L722.473 77.9L723.244 77.3287L722.648 76.5254ZM706.664 63.8281L706.222 64.725L706.224 64.7262L706.664 63.8281ZM668.443 62.8613L668.052 61.9411L668.049 61.9422L668.443 62.8613ZM643.758 87.6113L644.677 88.0052L644.678 88.0028L643.758 87.6113ZM643.758 123.641L642.838 124.032L642.839 124.035L643.758 123.641ZM653.619 138.465L652.908 139.168L652.916 139.176L653.619 138.465ZM668.443 148.326L668.049 149.245L668.052 149.246L668.443 148.326ZM703.184 148.906L703.545 149.839L704.184 149.591V148.906H703.184ZM703.184 144.137H704.184V142.66L702.812 143.208L703.184 144.137ZM670.248 144.072L669.85 144.99L669.857 144.993L670.248 144.072ZM656.906 135.178L656.195 135.881L656.203 135.889L656.906 135.178ZM648.012 121.836L647.091 122.227L647.094 122.234L648.012 121.836ZM648.012 89.3516L647.094 88.9539L647.091 88.9604L648.012 89.3516ZM670.248 67.1797L670.639 68.1L670.646 68.0972L670.248 67.1797ZM704.73 68.0176L704.289 68.9147L704.291 68.916L704.73 68.0176ZM719.168 79.5547L719.794 80.3342L720.571 79.7098L719.95 78.9308L719.168 79.5547ZM715.559 82.4551L714.779 83.0807L715.405 83.8616L716.185 83.2346L715.559 82.4551ZM672.053 71.4336L672.443 72.3541L672.448 72.3523L672.053 71.4336ZM652.266 91.2207L651.347 90.8257L651.345 90.8299L652.266 91.2207ZM652.266 120.031L651.344 120.419L651.348 120.429L652.266 120.031ZM660.193 131.891L659.482 132.593L659.491 132.602L660.193 131.891ZM672.053 139.818L671.655 140.736L671.665 140.74L672.053 139.818ZM703.184 139.109L703.604 140.017L704.184 139.748V139.109H703.184ZM703.184 134.34H704.184V132.752L702.751 133.438L703.184 134.34ZM670.184 133.76L669.678 134.622L669.683 134.626L670.184 133.76ZM658.324 121.9L657.458 122.401L657.462 122.406L658.324 121.9ZM658.324 89.2871L657.461 88.7814L657.458 88.787L658.324 89.2871ZM670.184 77.4922L670.684 78.3581L670.689 78.3549L670.184 77.4922ZM700.67 76.3965L700.226 77.2927L700.237 77.2977L700.67 76.3965ZM711.885 85.3555L712.496 86.1471L713.295 85.5304L712.671 84.7373L711.885 85.3555ZM708.211 88.1914L707.426 88.8111L708.039 89.5874L708.822 88.983L708.211 88.1914ZM698.607 80.5215L698.168 81.42L698.172 81.4219L698.607 80.5215ZM666.768 85.9355L666.06 85.2284L666.058 85.2312L666.768 85.9355ZM666.768 125.252L666.058 125.956L666.06 125.959L666.768 125.252ZM703.184 129.055L703.68 129.923L704.184 129.635V129.055H703.184ZM703.184 124.35H704.184V122.599L702.676 123.488L703.184 124.35ZM670.055 122.029L669.344 122.733L669.351 122.74L670.055 122.029ZM696.674 84.7754L696.227 85.6699L696.236 85.6746L696.674 84.7754ZM704.666 91.1562L705.27 91.9529L706.085 91.3352L705.449 90.5346L704.666 91.1562ZM700.928 93.9922L700.149 94.6195L700.758 95.3759L701.532 94.7889L700.928 93.9922ZM673.342 118.742L672.63 119.445L672.639 119.453L673.342 118.742ZM703.184 118.678L703.809 119.458L704.184 119.158V118.678H703.184ZM731.027 104.949V103.949H730.027V104.949H731.027ZM735.668 104.949H736.668V103.949H735.668V104.949ZM735.668 152V153H736.668V152H735.668ZM731.027 152H730.027V153H731.027V152ZM721.746 104.949V103.949H720.746V104.949H721.746ZM726.387 104.949H727.387V103.949H726.387V104.949ZM726.387 152V153H727.387V152H726.387ZM721.746 152H720.746V153H721.746V152ZM712.465 104.949V103.949H711.465V104.949H712.465ZM717.105 104.949H718.105V103.949H717.105V104.949ZM717.105 152V153H718.105V152H717.105ZM712.465 152H711.465V153H712.465V152ZM703.184 105.949H707.824V103.949H703.184V105.949ZM706.824 104.949V152H708.824V104.949H706.824ZM707.414 151.088C700.664 154.125 693.693 155.641 686.49 155.641V157.641C693.983 157.641 701.234 156.062 708.235 152.912L707.414 151.088ZM686.49 155.641C679.707 155.641 673.224 154.314 667.033 151.661L666.245 153.499C672.686 156.26 679.438 157.641 686.49 157.641V155.641ZM667.035 151.662C660.87 149.002 655.564 145.44 651.104 140.98L649.689 142.395C654.339 147.044 659.86 150.744 666.242 153.498L667.035 151.662ZM651.104 140.98C646.644 136.52 643.082 131.214 640.422 125.049L638.586 125.842C641.34 132.224 645.04 137.745 649.689 142.395L651.104 140.98ZM640.423 125.051C637.77 118.86 636.443 112.377 636.443 105.594H634.443C634.443 112.646 635.824 119.397 638.585 125.839L640.423 125.051ZM636.443 105.594C636.443 98.8103 637.77 92.3496 640.422 86.2028L638.586 85.4104C635.824 91.8106 634.443 98.5413 634.443 105.594H636.443ZM640.423 86.2006C643.083 79.9932 646.645 74.666 651.104 70.2071L649.689 68.7929C645.039 73.4434 641.339 78.9873 638.585 85.4127L640.423 86.2006ZM651.104 70.2071C655.564 65.7471 660.87 62.1856 667.035 59.5256L666.242 57.6893C659.86 60.4433 654.339 64.1435 649.689 68.7929L651.104 70.2071ZM667.033 59.5266C673.224 56.8732 679.707 55.5469 686.49 55.5469V53.5469C679.438 53.5469 672.686 54.9275 666.245 57.6883L667.033 59.5266ZM686.49 55.5469C694.246 55.5469 701.528 57.2315 708.348 60.5998L709.234 58.8065C702.133 55.2997 694.547 53.5469 686.49 53.5469V55.5469ZM708.353 60.6019C715.182 63.9323 720.93 68.5228 725.605 74.3779L727.168 73.1299C722.305 67.0397 716.322 62.263 709.229 58.8043L708.353 60.6019ZM725.791 72.9506L722.053 75.7221L723.244 77.3287L726.982 74.5572L725.791 72.9506ZM723.426 75.8969C718.993 70.4102 713.549 66.0867 707.104 62.9301L706.224 64.7262C712.412 67.757 717.624 71.8984 721.871 77.1539L723.426 75.8969ZM707.106 62.9313C700.692 59.7679 693.815 58.1875 686.49 58.1875V60.1875C693.517 60.1875 700.09 61.7009 706.222 64.725L707.106 62.9313ZM686.49 58.1875C680.083 58.1875 673.934 59.4391 668.052 61.9411L668.835 63.7815C674.469 61.3851 680.351 60.1875 686.49 60.1875V58.1875ZM668.049 61.9422C662.224 64.4387 657.175 67.8172 652.912 72.08L654.326 73.4942C658.399 69.4211 663.233 66.1824 668.837 63.7805L668.049 61.9422ZM652.912 72.08C648.69 76.302 645.333 81.3528 642.838 87.2199L644.678 88.0028C647.081 82.3542 650.298 77.5222 654.326 73.4942L652.912 72.08ZM642.839 87.2174C640.336 93.0579 639.084 99.1861 639.084 105.594H641.084C641.084 99.4545 642.282 93.5945 644.677 88.0052L642.839 87.2174ZM639.084 105.594C639.084 112.001 640.336 118.15 642.838 124.032L644.678 123.249C642.282 117.615 641.084 111.733 641.084 105.594H639.084ZM642.839 124.035C645.334 129.858 648.69 134.906 652.908 139.168L654.33 137.761C650.298 133.688 647.08 128.853 644.677 123.247L642.839 124.035ZM652.916 139.176C657.178 143.394 662.226 146.75 668.049 149.245L668.837 147.407C663.231 145.004 658.396 141.786 654.323 137.754L652.916 139.176ZM668.052 149.246C673.934 151.748 680.083 153 686.49 153V151C680.351 151 674.469 149.802 668.835 147.406L668.052 149.246ZM686.49 153C692.413 153 698.1 151.947 703.545 149.839L702.823 147.974C697.611 149.991 692.169 151 686.49 151V153ZM704.184 148.906V144.137H702.184V148.906H704.184ZM702.812 143.208C697.559 145.31 692.12 146.359 686.49 146.359V148.359C692.376 148.359 698.066 147.261 703.555 145.065L702.812 143.208ZM686.49 146.359C680.951 146.359 675.67 145.29 670.639 143.152L669.857 144.993C675.138 147.237 680.686 148.359 686.49 148.359V146.359ZM670.646 143.155C665.595 140.966 661.253 138.069 657.609 134.467L656.203 135.889C660.036 139.677 664.588 142.71 669.85 144.99L670.646 143.155ZM657.617 134.475C654.015 130.831 651.118 126.489 648.929 121.438L647.094 122.234C649.374 127.496 652.407 132.048 656.195 135.881L657.617 134.475ZM648.932 121.445C646.794 116.414 645.725 111.133 645.725 105.594H643.725C643.725 111.398 644.847 116.946 647.091 122.227L648.932 121.445ZM645.725 105.594C645.725 100.055 646.794 94.7737 648.932 89.7427L647.091 88.9604C644.847 94.2419 643.725 99.7892 643.725 105.594H645.725ZM648.929 89.7492C651.117 84.6996 654.014 80.3811 657.613 76.7813L656.199 75.3671C652.408 79.1579 649.375 83.691 647.094 88.954L648.929 89.7492ZM657.613 76.7813C661.256 73.1391 665.594 70.2443 670.639 68.1L669.857 66.2594C664.59 68.4979 660.033 71.5328 656.199 75.3671L657.613 76.7813ZM670.646 68.0972C675.675 65.9178 680.954 64.8281 686.49 64.8281V62.8281C680.683 62.8281 675.133 63.9729 669.85 66.2621L670.646 68.0972ZM686.49 64.8281C692.829 64.8281 698.758 66.1912 704.289 68.9147L705.172 67.1204C699.359 64.258 693.128 62.8281 686.49 62.8281V64.8281ZM704.291 68.916C709.875 71.645 714.57 75.3976 718.386 80.1785L719.95 78.9308C715.946 73.9149 711.015 69.9761 705.17 67.1191L704.291 68.916ZM718.542 78.7752L714.932 81.6756L716.185 83.2346L719.794 80.3342L718.542 78.7752ZM716.339 81.8294C712.765 77.3734 708.373 73.8654 703.174 71.3096L702.291 73.1045C707.232 75.533 711.391 78.857 714.779 83.0807L716.339 81.8294ZM703.174 71.3096C697.963 68.7486 692.398 67.4688 686.49 67.4688V69.4688C692.098 69.4688 697.361 70.6811 702.291 73.1045L703.174 71.3096ZM686.49 67.4688C681.328 67.4688 676.381 68.4844 671.658 70.5149L672.448 72.3523C676.92 70.4296 681.598 69.4688 686.49 69.4688V67.4688ZM671.662 70.5131C666.994 72.4946 662.933 75.2079 659.486 78.6542L660.9 80.0684C664.157 76.8116 668.002 74.2398 672.443 72.3541L671.662 70.5131ZM659.486 78.6542C656.082 82.0586 653.37 86.1198 651.347 90.8257L653.184 91.6157C655.114 87.1263 657.688 83.2812 660.9 80.0684L659.486 78.6542ZM651.345 90.8299C649.358 95.5102 648.365 100.434 648.365 105.594H650.365C650.365 100.698 651.306 96.0406 653.186 91.6115L651.345 90.8299ZM648.365 105.594C648.365 110.753 649.358 115.698 651.344 120.419L653.187 119.644C651.306 115.17 650.365 110.489 650.365 105.594H648.365ZM651.348 120.429C653.371 125.091 656.082 129.149 659.482 132.593L660.905 131.188C657.688 127.929 655.113 124.081 653.183 119.633L651.348 120.429ZM659.491 132.602C662.935 136.002 666.993 138.713 671.655 140.736L672.451 138.901C668.003 136.971 664.155 134.396 660.896 131.179L659.491 132.602ZM671.665 140.74C676.386 142.726 681.331 143.719 686.49 143.719V141.719C681.595 141.719 676.914 140.778 672.44 138.897L671.665 140.74ZM686.49 143.719C692.56 143.719 698.268 142.486 703.604 140.017L702.764 138.202C697.701 140.545 692.28 141.719 686.49 141.719V143.719ZM704.184 139.109V134.34H702.184V139.109H704.184ZM702.751 133.438C697.691 135.864 692.275 137.078 686.49 137.078V139.078C692.565 139.078 698.278 137.8 703.616 135.242L702.751 133.438ZM686.49 137.078C680.775 137.078 675.513 135.683 670.684 132.894L669.683 134.626C674.823 137.594 680.432 139.078 686.49 139.078V137.078ZM670.689 132.897C665.852 130.062 662.022 126.231 659.187 121.395L657.462 122.406C660.47 127.538 664.546 131.614 669.678 134.622L670.689 132.897ZM659.19 121.4C656.401 116.571 655.006 111.309 655.006 105.594H653.006C653.006 111.652 654.49 117.261 657.458 122.401L659.19 121.4ZM655.006 105.594C655.006 99.8784 656.401 94.616 659.19 89.7873L657.458 88.787C654.49 93.927 653.006 99.5356 653.006 105.594H655.006ZM659.187 89.7928C662.022 84.9573 665.85 81.15 670.684 78.3581L669.683 76.6263C664.548 79.5921 660.471 83.6482 657.462 88.7814L659.187 89.7928ZM670.689 78.3549C675.517 75.5247 680.778 74.1094 686.49 74.1094V72.1094C680.429 72.1094 674.819 73.6159 669.678 76.6295L670.689 78.3549ZM686.49 74.1094C691.367 74.1094 695.941 75.1708 700.226 77.2926L701.114 75.5003C696.547 73.2394 691.669 72.1094 686.49 72.1094V74.1094ZM700.237 77.2977C704.57 79.3813 708.187 82.2719 711.099 85.9737L712.671 84.7373C709.567 80.7906 705.707 77.7085 701.103 75.4952L700.237 77.2977ZM711.274 84.5639L707.6 87.3998L708.822 88.983L712.496 86.1471L711.274 84.5639ZM708.996 87.5718C706.322 84.1847 703 81.5332 699.042 79.6211L698.172 81.4219C701.863 83.2051 704.944 85.6668 707.426 88.8111L708.996 87.5718ZM699.046 79.623C695.126 77.7071 690.936 76.75 686.49 76.75V78.75C690.638 78.75 694.527 79.6405 698.168 81.42L699.046 79.623ZM686.49 76.75C678.533 76.75 671.704 79.5846 666.06 85.2284L667.475 86.6427C672.745 81.3724 679.065 78.75 686.49 78.75V76.75ZM666.058 85.2312C660.459 90.8745 657.646 97.68 657.646 105.594H659.646C659.646 98.2107 662.248 91.9106 667.477 86.6399L666.058 85.2312ZM657.646 105.594C657.646 113.508 660.459 120.313 666.058 125.956L667.477 124.548C662.248 119.277 659.646 112.977 659.646 105.594H657.646ZM666.06 125.959C671.704 131.603 678.533 134.438 686.49 134.438V132.438C679.065 132.438 672.745 129.815 667.475 124.545L666.06 125.959ZM686.49 134.438C692.676 134.438 698.412 132.933 703.68 129.923L702.687 128.186C697.729 131.02 692.336 132.438 686.49 132.438V134.438ZM704.184 129.055V124.35H702.184V129.055H704.184ZM702.676 123.488C697.809 126.358 692.422 127.797 686.49 127.797V129.797C692.762 129.797 698.503 128.271 703.692 125.211L702.676 123.488ZM686.49 127.797C680.352 127.797 675.126 125.645 670.758 121.319L669.351 122.74C674.093 127.437 679.824 129.797 686.49 129.797V127.797ZM670.765 121.326C666.439 116.958 664.287 111.732 664.287 105.594H662.287C662.287 112.26 664.647 117.991 669.344 122.733L670.765 121.326ZM664.287 105.594C664.287 99.4556 666.438 94.2532 670.762 89.9298L669.348 88.5155C664.648 93.2155 662.287 98.9272 662.287 105.594H664.287ZM670.762 89.9298C675.13 85.5613 680.355 83.3906 686.49 83.3906V81.3906C679.821 81.3906 674.089 83.7746 669.348 88.5155L670.762 89.9298ZM686.49 83.3906C689.947 83.3906 693.188 84.1505 696.227 85.6698L697.121 83.881C693.8 82.2206 690.252 81.3906 686.49 81.3906V83.3906ZM696.236 85.6746C699.285 87.1576 701.83 89.1909 703.883 91.7779L705.449 90.5346C703.206 87.7076 700.422 85.4869 697.111 83.8762L696.236 85.6746ZM704.062 90.3596L700.323 93.1955L701.532 94.7889L705.27 91.9529L704.062 90.3596ZM701.706 93.3649C697.781 88.492 692.684 86.0312 686.49 86.0312V88.0312C692.07 88.0312 696.598 90.2112 700.149 94.6195L701.706 93.3649ZM686.49 86.0312C681.109 86.0312 676.472 87.9649 672.635 91.8027L674.049 93.2169C677.516 89.7499 681.645 88.0312 686.49 88.0312V86.0312ZM672.635 91.8027C668.837 95.5999 666.928 100.216 666.928 105.594H668.928C668.928 100.745 670.627 96.6383 674.049 93.2169L672.635 91.8027ZM666.928 105.594C666.928 110.971 668.837 115.606 672.63 119.445L674.053 118.039C670.628 114.573 668.928 110.443 668.928 105.594H666.928ZM672.639 119.453C676.478 123.247 681.113 125.156 686.49 125.156V123.156C681.641 123.156 677.511 121.456 674.045 118.031L672.639 119.453ZM686.49 125.156C693.262 125.156 699.055 123.27 703.809 119.458L702.558 117.898C698.203 121.39 692.867 123.156 686.49 123.156V125.156ZM704.184 118.678V104.949H702.184V118.678H704.184ZM731.027 105.949H735.668V103.949H731.027V105.949ZM734.668 104.949V152H736.668V104.949H734.668ZM735.668 151H731.027V153H735.668V151ZM732.027 152V104.949H730.027V152H732.027ZM721.746 105.949H726.387V103.949H721.746V105.949ZM725.387 104.949V152H727.387V104.949H725.387ZM726.387 151H721.746V153H726.387V151ZM722.746 152V104.949H720.746V152H722.746ZM712.465 105.949H717.105V103.949H712.465V105.949ZM716.105 104.949V152H718.105V104.949H716.105ZM717.105 151H712.465V153H717.105V151ZM713.465 152V104.949H711.465V152H713.465Z" fill="black"/>
</svg>
